<?xml version="1.0" encoding="UTF-8"?>
<svg xmlns="http://www.w3.org/2000/svg" xmlns:xlink="http://www.w3.org/1999/xlink" width="68px" height="115px" viewBox="0 0 68 114" version="1.1">
<g id="surface1">
<path style=" stroke:none;fill-rule:nonzero;fill:rgb(0%,0%,0%);fill-opacity:1;" d="M 3.566406 0.0820312 C 2.933594 0.277344 2.347656 0.765625 2.058594 1.335938 C 1.855469 1.726562 1.347656 3.792969 0.988281 5.609375 C 0.390625 8.710938 0.105469 11.390625 0.0273438 14.652344 C -0.195312 24.25 2.265625 33.863281 6.921875 41.554688 C 8.890625 44.824219 10.722656 47.140625 13.296875 49.652344 C 15.949219 52.226562 18.488281 54.042969 21.558594 55.566406 C 23.894531 56.722656 26.390625 57.585938 28.835938 58.070312 L 29.34375 58.167969 L 29.328125 78.535156 L 29.300781 98.902344 L 29.101562 99.324219 C 28.835938 99.902344 28.246094 100.507812 27.703125 100.765625 C 27.433594 100.898438 26.722656 101.078125 25.953125 101.21875 C 18.8125 102.503906 12.988281 105.421875 10.1875 109.144531 C 9.230469 110.410156 8.472656 112.34375 8.472656 113.527344 L 8.472656 114 L 59.785156 114 L 59.722656 113.339844 C 59.304688 108.691406 54.253906 104.46875 46.46875 102.261719 C 45.121094 101.878906 43.765625 101.574219 42.234375 101.308594 C 40.351562 100.988281 39.796875 100.675781 39.234375 99.644531 L 38.933594 99.082031 L 38.90625 78.597656 L 38.886719 58.113281 L 39.664062 57.953125 C 46.488281 56.5625 52.996094 52.304688 58.101562 45.910156 C 59.027344 44.746094 60.828125 42.0625 61.675781 40.566406 C 63.800781 36.84375 65.644531 32.035156 66.625 27.652344 C 67.617188 23.238281 67.910156 20.519531 67.910156 15.808594 C 67.917969 12.15625 67.785156 10.332031 67.285156 7.304688 C 66.929688 5.09375 66.117188 1.558594 65.867188 1.070312 C 65.691406 0.730469 65.289062 0.390625 64.84375 0.1875 C 64.441406 0 64.441406 0 34.117188 0.0078125 C 17.4375 0.0078125 3.691406 0.0429688 3.566406 0.0820312 Z M 3.566406 0.0820312 "/>
</g>
</svg>
