<?xml version="1.0" standalone="no"?>
<!DOCTYPE svg PUBLIC "-//W3C//DTD SVG 20010904//EN"
 "http://www.w3.org/TR/2001/REC-SVG-20010904/DTD/svg10.dtd">
<svg version="1.0" xmlns="http://www.w3.org/2000/svg"
 width="360.000000pt" height="360.000000pt" viewBox="0 0 360.000000 360.000000"
 preserveAspectRatio="xMidYMid meet">
<metadata>
Created by potrace 1.14, written by Peter Selinger 2001-2017
</metadata>
<g transform="translate(0.000000,360.000000) scale(0.100000,-0.100000)"
fill="#000000" stroke="none">
<path d="M1890 2864 c0 -7 -44 -10 -134 -10 -74 1 -134 -1 -134 -4 1 -18 -4
-23 -12 -10 -8 12 -12 13 -19 2 -5 -8 -27 -14 -55 -14 -27 0 -52 -6 -60 -14
-18 -17 -29 -18 -21 -1 4 6 0 4 -8 -6 -11 -14 -16 -15 -21 -5 -5 11 -7 11 -12
0 -5 -10 -9 -10 -22 0 -12 10 -14 10 -8 1 6 -12 -5 -18 -26 -14 -5 0 -8 -4 -8
-11 0 -6 -3 -8 -7 -5 -3 4 -13 1 -21 -6 -13 -10 -14 -9 -7 3 6 12 5 13 -6 3
-7 -7 -21 -13 -31 -13 -10 0 -21 -7 -25 -16 -3 -8 -12 -13 -19 -10 -8 3 -14 1
-14 -5 0 -6 -4 -7 -10 -4 -5 3 -10 0 -10 -7 0 -9 -3 -9 -10 2 -8 12 -10 10
-10 -9 0 -24 0 -24 -15 -5 -13 16 -14 16 -9 2 3 -10 1 -18 -5 -18 -6 0 -11 -5
-11 -11 0 -5 5 -7 12 -3 7 4 8 3 4 -4 -7 -12 50 -79 60 -69 7 7 54 -46 54 -62
0 -6 7 -11 16 -11 11 0 14 -5 10 -17 -4 -10 -4 -14 0 -11 8 9 33 -14 27 -25
-2 -4 1 -6 9 -5 7 2 12 -2 11 -9 -2 -7 4 -10 12 -7 9 4 15 0 15 -10 0 -10 9
-16 23 -17 12 0 17 -3 10 -6 -8 -3 -5 -12 10 -27 12 -13 25 -21 30 -19 4 2 7
-3 7 -12 0 -9 5 -13 10 -10 6 3 10 1 10 -4 0 -6 17 -28 37 -48 20 -21 30 -29
22 -18 -13 18 -13 19 4 6 9 -7 17 -20 17 -27 0 -8 7 -14 16 -14 8 0 12 -4 9
-10 -3 -5 1 -10 9 -10 9 0 16 -5 16 -10 0 -6 5 -9 12 -8 7 2 12 -2 13 -9 0 -7
9 -19 20 -28 11 -9 14 -13 6 -9 -10 5 -12 3 -7 -5 5 -7 14 -10 22 -7 8 3 11 0
7 -10 -3 -8 1 -14 10 -14 20 0 78 -70 70 -83 -3 -6 -1 -7 5 -3 13 8 74 -52 66
-65 -3 -5 2 -6 10 -3 9 3 16 1 16 -5 0 -19 48 -62 53 -48 3 7 6 1 6 -12 1 -16
5 -21 15 -18 10 4 13 1 9 -9 -3 -8 1 -14 9 -14 16 0 90 -75 82 -83 -3 -3 4 -8
16 -12 14 -4 19 -12 16 -22 -4 -11 -2 -13 9 -9 8 3 15 1 15 -4 0 -5 6 -15 14
-22 22 -22 46 -75 38 -83 -4 -5 1 -5 10 -2 12 4 15 2 11 -9 -3 -8 1 -22 8 -31
12 -14 12 -16 0 -8 -11 6 -12 5 -5 -6 5 -8 10 -27 10 -44 1 -16 2 -32 3 -35
10 -26 6 -70 -6 -74 -8 -3 -11 -10 -8 -16 12 -20 14 -51 3 -44 -7 5 -9 2 -5
-9 3 -8 -1 -21 -9 -28 -12 -10 -12 -14 -2 -20 10 -7 10 -9 -2 -10 -8 -1 -18
-1 -22 0 -4 0 -5 -8 -3 -19 2 -11 0 -21 -6 -21 -5 -1 -13 -2 -18 -3 -5 0 -13
-5 -18 -10 -5 -5 -3 -6 5 -2 6 4 12 2 12 -3 0 -6 -7 -11 -15 -11 -8 0 -15 -5
-15 -11 0 -5 6 -7 13 -3 9 6 8 3 -1 -8 -8 -10 -20 -14 -29 -11 -12 5 -15 2
-10 -9 4 -12 1 -14 -15 -10 -16 4 -19 2 -13 -8 5 -8 3 -11 -6 -8 -8 3 -25 -4
-38 -16 -13 -11 -21 -15 -17 -8 4 6 3 12 -3 12 -5 0 -11 -5 -13 -12 -3 -7 -26
-13 -59 -14 -30 -1 -63 -5 -73 -9 -11 -5 -17 -5 -14 1 4 5 -4 9 -17 9 -13 0
-21 -4 -18 -8 3 -5 -5 -3 -16 5 -18 11 -23 11 -32 -2 -9 -12 -10 -10 -6 8 5
19 3 21 -9 11 -13 -10 -18 -6 -15 13 0 4 -11 4 -25 2 -20 -4 -25 -1 -21 9 4
11 0 13 -14 10 -14 -4 -19 0 -19 13 0 16 -2 17 -10 4 -8 -13 -10 -12 -10 3 0
9 -6 17 -14 17 -8 0 -18 9 -21 20 -3 11 -13 20 -22 20 -9 0 -13 6 -9 15 3 8 2
14 -2 14 -20 -3 -32 2 -32 15 0 8 -7 17 -16 20 -8 3 -12 10 -9 16 4 6 -1 7
-11 3 -12 -4 -15 -3 -10 5 4 7 2 12 -4 12 -6 0 -8 5 -5 10 3 6 -3 10 -13 10
-24 0 -46 25 -36 41 5 9 2 10 -10 6 -14 -6 -17 -3 -12 9 5 12 2 15 -11 10 -10
-4 -14 -4 -11 0 4 3 0 13 -8 21 -8 8 -11 20 -7 26 5 8 2 8 -9 0 -15 -13 -28
-8 -28 11 0 6 5 4 11 -4 9 -13 10 -13 6 0 -2 8 -11 14 -20 12 -9 -1 -21 8 -27
20 -11 22 -10 22 4 4 9 -11 16 -15 16 -9 0 20 -30 37 -42 25 -7 -7 -16 -12
-22 -12 -5 0 -2 6 9 13 14 11 15 16 5 22 -7 4 -16 2 -22 -6 -8 -12 -9 -11 -5
1 2 8 12 14 21 14 9 -1 16 2 16 7 0 5 -5 9 -11 9 -8 0 -8 4 0 14 6 8 25 12 44
11 17 -2 39 1 47 6 10 5 5 7 -17 4 -27 -3 -31 0 -31 18 1 12 6 28 11 35 6 8 6
12 -2 12 -6 0 -11 -6 -11 -12 0 -10 -3 -9 -9 1 -6 9 -10 10 -14 2 -3 -7 -4 -7
-3 1 2 7 8 12 14 11 5 -1 15 4 22 12 9 11 7 12 -12 8 -23 -5 -23 -5 2 16 14
11 20 21 14 21 -5 0 -15 -5 -22 -12 -9 -9 -11 -4 -8 20 4 25 1 30 -11 25 -9
-4 -14 -2 -10 3 3 6 1 16 -4 24 -14 22 -31 -8 -18 -31 11 -22 12 -32 1 -25 -5
3 -8 -7 -7 -22 1 -15 -2 -32 -7 -39 -5 -7 -5 -14 2 -18 6 -4 9 -3 8 2 -2 4 2
9 7 11 15 3 13 -49 -2 -55 -7 -3 -13 -9 -13 -14 0 -4 7 -6 16 -2 14 5 14 2 -2
-22 -20 -31 -28 -85 -12 -85 5 0 7 -4 3 -9 -10 -17 -13 -71 -4 -77 5 -3 7 -10
3 -15 -3 -5 0 -16 6 -24 10 -12 9 -15 -6 -15 -18 -1 -18 -1 -1 -11 9 -6 15
-14 12 -20 -4 -5 -1 -9 6 -9 8 0 7 -5 -2 -17 -10 -11 -10 -14 -1 -9 8 5 12 -1
12 -18 0 -14 5 -26 10 -26 6 0 10 -6 9 -13 -3 -24 1 -38 10 -33 5 3 12 -1 15
-10 3 -8 2 -13 -2 -10 -5 3 -9 -1 -9 -9 0 -8 8 -12 20 -10 15 4 17 2 7 -10
-10 -11 -10 -15 -1 -15 7 0 9 -5 6 -10 -4 -6 -1 -9 7 -8 7 2 12 -3 10 -9 -1
-7 3 -13 9 -13 5 0 7 -4 4 -10 -3 -5 1 -10 10 -10 9 0 13 -4 10 -10 -3 -5 -1
-10 5 -10 5 0 18 -13 28 -30 15 -23 21 -27 31 -17 7 6 12 8 11 2 -5 -23 1 -35
16 -35 8 0 12 -5 9 -10 -5 -9 10 -15 18 -7 6 5 35 -29 30 -36 -3 -5 1 -8 8 -6
28 3 40 -1 33 -13 -4 -7 -3 -10 1 -5 5 4 19 0 32 -8 13 -9 28 -13 33 -10 6 3
10 1 10 -5 0 -6 5 -8 11 -5 6 4 17 -1 25 -11 9 -11 12 -12 8 -4 -5 12 -4 12 6
3 7 -6 18 -9 25 -6 8 2 22 0 33 -6 13 -7 23 -7 32 2 10 10 12 9 7 -4 -4 -13
-1 -16 15 -11 11 3 24 -1 30 -9 8 -11 9 -10 4 4 -5 15 -2 16 14 7 16 -9 18 -8
13 6 -5 14 -2 14 23 -2 19 -13 25 -14 19 -5 -6 11 -4 13 8 8 9 -3 18 -3 21 1
2 4 21 7 40 7 20 -1 36 3 36 8 0 5 7 4 15 -3 12 -10 16 -9 21 4 3 9 10 13 15
10 5 -3 9 -1 9 5 0 5 9 8 21 6 16 -3 19 0 15 12 -5 13 -4 14 9 3 12 -10 15
-10 15 0 0 8 3 10 6 7 4 -3 18 2 32 13 13 11 28 17 32 15 5 -3 12 0 16 6 5 8
3 9 -6 4 -9 -6 -11 -4 -6 4 5 7 15 10 23 6 14 -5 14 -3 2 12 -11 13 -11 15 -1
9 8 -5 19 -1 28 10 9 11 12 13 8 5 -5 -9 -3 -12 4 -7 7 4 12 14 12 23 0 9 6
13 14 10 9 -4 17 2 21 14 4 10 11 17 16 14 5 -3 6 1 3 10 -4 10 -2 15 7 13 8
-2 13 2 12 9 -2 7 6 17 17 23 12 7 17 16 13 27 -4 11 -3 14 5 9 11 -6 17 5 13
26 0 5 6 8 15 8 8 0 12 5 9 10 -4 6 -1 17 5 25 6 8 8 20 4 26 -4 7 -3 9 2 6 6
-3 16 3 23 15 7 11 8 18 3 14 -5 -3 -9 1 -9 9 0 8 4 12 8 9 4 -2 10 0 14 6 3
5 1 10 -6 10 -10 0 -10 3 -2 11 6 6 9 17 7 23 -3 7 1 26 7 42 17 40 21 66 10
60 -7 -5 -8 22 -1 32 7 7 5 29 -3 40 -6 8 -5 12 4 12 11 0 11 2 -1 10 -8 5
-10 10 -3 10 13 0 12 25 -2 37 -4 4 -5 2 0 -6 5 -9 4 -12 -3 -7 -6 4 -8 14 -5
23 5 11 3 14 -6 8 -10 -5 -11 -3 -4 11 12 25 10 50 -4 47 -6 -1 -9 6 -6 18 4
13 -1 25 -15 35 -11 7 -19 22 -18 31 2 10 -3 24 -11 31 -7 8 -11 18 -8 23 4 5
1 9 -4 9 -6 0 -11 5 -11 11 0 5 4 8 9 5 5 -3 8 0 7 7 0 6 2 12 6 12 10 0 43
48 40 58 -1 5 2 6 7 2 6 -3 15 4 21 15 6 11 17 20 24 20 8 0 16 9 19 21 4 14
10 18 19 13 10 -6 10 -4 -1 9 -12 15 -12 17 1 12 8 -3 21 2 29 11 12 15 12 17
0 9 -10 -5 -12 -4 -7 3 4 7 14 12 22 12 8 0 14 4 14 9 0 5 9 12 20 16 11 3 19
12 17 18 -1 7 4 11 10 10 7 -2 12 0 10 5 -3 11 64 72 74 66 5 -3 7 -10 3 -15
-3 -5 -11 -6 -17 -2 -7 4 -4 -5 6 -20 10 -16 12 -25 5 -22 -10 4 -13 -12 -13
-60 0 -36 4 -65 8 -65 4 0 3 -8 -2 -18 -7 -13 -6 -23 1 -30 9 -9 9 -12 -1 -12
-11 0 -11 -3 0 -17 10 -11 10 -14 2 -9 -8 4 -13 1 -13 -9 0 -9 5 -13 11 -9 8
5 8 1 0 -14 -14 -26 -14 -35 -1 -27 5 3 7 0 4 -9 -10 -26 -9 -146 1 -150 6 -3
4 -5 -3 -5 -10 -1 -10 -6 -1 -22 8 -15 8 -19 0 -15 -6 4 -11 3 -11 -3 0 -5 5
-13 10 -16 6 -4 7 -11 4 -17 -11 -18 -10 -238 1 -242 6 -3 6 -5 -1 -5 -11 -1
-10 -52 1 -72 5 -7 4 -10 -3 -5 -7 4 -10 -1 -9 -14 1 -11 6 -20 12 -20 6 0 7
-3 0 -8 -14 -10 -17 -64 -3 -56 6 4 7 0 1 -12 -4 -11 -8 -74 -8 -141 1 -67 -3
-119 -7 -117 -18 11 -6 -7 19 -31 29 -26 50 -34 37 -13 -5 7 -3 8 7 2 8 -5 22
-7 33 -5 13 2 16 -1 10 -11 -6 -10 -5 -11 7 -1 12 10 18 10 29 0 10 -10 12 -9
7 4 -4 12 1 15 20 13 14 -1 30 -9 34 -16 6 -9 9 -8 9 7 0 17 2 17 10 5 8 -12
10 -12 10 -1 0 10 3 11 14 2 11 -10 16 -8 21 8 3 12 4 25 0 30 -3 5 0 13 6 17
8 4 9 3 5 -4 -4 -7 -3 -12 3 -12 5 0 9 9 8 20 -1 14 -6 19 -16 15 -10 -4 -9 1
5 16 10 12 13 19 7 15 -16 -9 -18 20 -3 29 13 8 13 25 -1 25 -5 0 -7 -5 -3
-12 4 -7 3 -8 -5 -4 -6 4 -8 13 -4 19 4 7 8 21 9 32 1 11 4 35 7 53 4 27 2 32
-11 27 -12 -4 -13 -3 -2 10 7 8 9 15 4 15 -4 0 -3 5 4 12 17 17 15 33 -2 19
-12 -10 -13 -8 -9 8 3 12 10 18 17 14 6 -3 6 0 -1 8 -15 15 -18 33 -5 25 5 -3
9 1 9 9 0 8 -4 12 -9 9 -13 -8 -10 10 5 25 7 8 7 11 1 8 -15 -9 -15 43 0 62 8
12 8 13 -1 7 -8 -4 -13 -1 -13 9 0 9 4 14 8 11 4 -2 9 5 9 17 2 17 0 19 -7 7
-8 -13 -10 -13 -10 2 0 9 6 19 13 21 9 4 8 6 -2 6 -11 1 -11 4 0 18 10 11 10
14 2 9 -16 -9 -16 -1 -2 26 8 15 8 19 0 14 -15 -10 -14 7 2 23 10 11 10 13 0
7 -7 -4 -13 -2 -13 3 0 6 5 11 11 11 6 0 3 7 -5 16 -14 14 -14 34 0 34 3 0 2
-4 -1 -10 -3 -5 -1 -10 4 -10 14 0 14 17 1 25 -5 3 -10 11 -10 16 0 6 4 8 8 5
4 -2 9 5 9 17 2 17 0 19 -7 7 -8 -13 -10 -13 -10 2 0 9 6 19 13 21 10 4 10 6
0 6 -16 1 -17 31 -2 31 6 0 3 7 -5 16 -14 14 -14 34 0 34 3 0 2 -4 -1 -10 -3
-5 -1 -10 4 -10 14 0 14 17 1 25 -5 3 -10 11 -10 16 0 6 4 8 8 5 4 -2 9 5 9
17 2 17 0 19 -7 7 -8 -13 -10 -13 -10 2 0 9 6 19 13 21 9 4 8 6 -2 6 -11 1
-11 4 0 18 10 11 10 14 2 9 -16 -9 -16 -1 -2 26 8 15 8 19 0 14 -15 -10 -14 7
2 23 10 11 10 13 0 7 -7 -4 -13 -2 -13 3 0 6 5 11 11 11 6 0 3 7 -5 16 -14 14
-14 34 0 34 3 0 2 -4 -1 -10 -3 -5 -1 -10 4 -10 14 0 14 17 1 25 -5 3 -10 11
-10 16 0 6 4 8 8 5 4 -2 9 5 9 17 2 17 0 19 -7 7 -8 -13 -10 -13 -10 2 0 9 6
19 13 21 10 4 10 6 0 6 -7 1 -13 6 -13 12 0 5 6 7 13 3 10 -6 10 -4 0 7 -15
15 -18 33 -5 25 5 -3 9 1 9 9 0 8 -4 12 -9 9 -13 -8 -10 10 5 25 6 8 7 11 1 8
-7 -4 -11 7 -12 29 -1 25 2 33 11 28 9 -5 9 -4 0 7 -14 14 -18 33 -5 25 4 -2
9 5 9 17 2 16 0 18 -6 8 -6 -9 -9 6 -9 40 1 30 6 60 12 68 8 11 8 13 -1 7 -8
-4 -13 -1 -13 9 0 9 4 14 8 11 4 -2 9 5 9 17 2 17 0 19 -7 7 -8 -13 -10 -12
-10 3 0 9 5 17 12 17 6 0 3 7 -8 16 -10 8 -14 13 -8 10 7 -3 14 1 18 9 3 9 0
15 -10 15 -8 0 -12 5 -9 10 4 6 9 8 13 6 4 -2 7 11 8 30 1 27 -2 32 -13 22
-11 -8 -12 -7 -7 5 10 27 -6 41 -23 20 -14 -17 -14 -17 -9 1 6 18 5 18 -20 1
-26 -17 -27 -17 -20 1 6 16 5 16 -15 -2 -20 -17 -22 -17 -16 -1 4 9 4 17 0 17
-3 0 -12 -8 -20 -17 -8 -10 -12 -13 -9 -6 4 6 2 14 -4 18 -5 3 -10 1 -10 -6 0
-6 -8 -9 -20 -6 -11 3 -18 2 -15 -2 2 -5 -7 -14 -20 -21 -13 -7 -22 -17 -19
-22 3 -4 -2 -8 -11 -8 -9 0 -14 -3 -12 -7 2 -5 -7 -19 -21 -33 -14 -14 -20
-17 -12 -7 7 9 11 20 8 22 -3 3 -11 -7 -18 -23 -19 -38 -51 -72 -61 -66 -5 3
-9 -2 -9 -11 0 -9 -3 -15 -7 -13 -5 3 -24 -11 -43 -31 -19 -19 -29 -31 -21
-26 10 6 12 4 7 -4 -5 -7 -15 -10 -23 -7 -11 4 -13 1 -8 -14 5 -16 3 -19 -11
-13 -12 4 -15 3 -10 -5 4 -7 1 -12 -8 -12 -9 0 -16 -7 -16 -16 0 -10 -6 -14
-15 -10 -8 3 -14 2 -14 -2 4 -22 -3 -31 -18 -25 -13 5 -15 2 -10 -11 6 -14 3
-17 -9 -12 -12 4 -15 2 -10 -9 3 -8 2 -14 -2 -12 -11 3 -53 -43 -47 -52 2 -5
-1 -8 -8 -7 -6 0 -12 -2 -12 -6 0 -14 -50 -58 -62 -54 -7 3 -10 -1 -7 -9 6
-14 -32 -41 -53 -37 -6 1 -14 -5 -16 -15 -4 -17 -5 -17 -6 0 -1 21 -26 49 -34
40 -3 -3 -9 6 -13 21 -3 14 -10 23 -15 20 -5 -3 -9 3 -9 13 0 15 -2 16 -10 3
-7 -11 -10 -12 -10 -2 0 16 -25 43 -33 36 -2 -3 -7 2 -11 11 -4 11 -2 14 6 9
7 -4 8 -3 4 4 -4 7 -14 12 -22 12 -8 0 -14 5 -14 10 0 6 -8 10 -17 10 -14 0
-15 2 -5 9 10 6 8 10 -8 14 -12 3 -19 10 -15 16 3 6 0 11 -8 11 -7 0 -20 11
-27 25 -7 13 -16 22 -20 20 -9 -6 -40 32 -32 40 4 4 -2 5 -12 3 -11 -1 -21 4
-23 12 -4 13 -3 13 7 0 10 -13 11 -13 7 0 -2 8 -11 14 -20 12 -8 -1 -19 3 -23
9 -4 8 -3 9 4 5 8 -5 10 -2 6 8 -3 9 -14 16 -24 16 -10 0 -20 9 -23 20 -3 11
-13 20 -24 20 -15 0 -16 2 -3 10 13 9 13 10 0 10 -8 0 -26 13 -40 29 -13 17
-27 28 -32 25 -4 -3 -5 3 -1 12 4 12 3 15 -5 10 -7 -4 -12 -2 -12 4 0 6 -5 8
-12 4 -10 -6 -10 -5 -1 8 7 8 11 17 8 19 -2 3 4 5 13 6 65 5 89 10 101 17 11
7 13 5 7 -9 -6 -18 -6 -18 15 1 12 10 19 13 15 7 -4 -7 -3 -13 3 -13 5 0 12 6
15 13 5 9 7 9 12 -1 5 -10 11 -9 27 5 19 16 20 16 8 1 -15 -20 -2 -25 17 -6 9
9 12 9 12 -1 0 -11 3 -11 17 0 11 10 14 10 9 2 -9 -16 -5 -16 28 -3 17 6 27 6
32 -1 3 -6 12 -8 19 -5 17 6 25 -15 18 -43 -3 -12 -1 -21 6 -21 6 0 11 -9 11
-21 0 -11 5 -17 10 -14 6 3 13 -1 16 -9 3 -9 13 -16 21 -16 8 0 12 -4 9 -9 -3
-5 1 -12 10 -15 8 -3 12 -10 9 -16 -3 -6 1 -7 9 -4 15 6 21 -6 16 -31 -1 -5 1
-7 5 -3 4 4 18 -5 32 -20 14 -15 19 -18 12 -8 -13 17 -12 18 7 12 14 -4 26 -1
34 9 7 8 9 15 4 16 -5 0 1 4 14 10 14 5 20 13 16 21 -5 7 -2 9 9 5 9 -3 21 1
29 11 9 11 10 14 1 8 -7 -4 -13 -2 -13 3 0 6 7 11 16 11 9 0 12 5 8 12 -5 7
-2 9 9 5 12 -4 14 -2 10 10 -4 10 -2 14 4 10 6 -4 14 0 17 9 3 8 10 13 15 9 6
-3 8 6 5 21 -4 24 -3 25 11 10 18 -17 30 -22 21 -7 -3 5 1 14 9 21 8 7 15 20
15 29 0 14 2 14 10 1 9 -13 10 -13 11 0 1 8 1 18 0 23 -1 4 11 12 26 18 22 8
24 12 13 19 -12 8 -9 10 10 10 l25 1 -23 12 c-12 7 -19 16 -16 20 4 4 -5 7
-19 7 -15 0 -27 5 -27 11 0 5 -4 7 -10 4 -5 -3 -10 -1 -10 5 0 6 -8 10 -17 8
-10 -2 -17 2 -16 9 2 8 -4 10 -14 6 -11 -5 -14 -3 -8 6 6 10 3 11 -15 1 -12
-7 -20 -8 -16 -2 3 5 -1 15 -9 22 -13 11 -15 10 -9 -6 5 -17 4 -17 -8 -4 -7 8
-24 17 -38 18 -14 2 -26 8 -28 13 -2 5 -8 9 -13 9 -6 0 -7 -6 -3 -12 6 -9 3
-9 -9 1 -9 7 -23 11 -32 8 -8 -4 -19 1 -24 11 -9 15 -13 15 -31 4 -12 -8 -19
-9 -15 -3 3 7 -3 12 -17 13 -42 2 -45 3 -64 18 -16 14 -17 13 -11 -5 7 -20 7
-20 -8 -1 -8 11 -15 15 -15 8 0 -8 -7 -9 -24 -2 -13 5 -27 6 -31 2 -3 -3 -10
0 -15 8 -6 8 -10 10 -10 4z m-674 -1110 c-3 -7 -1 -16 4 -19 7 -4 7 -13 1 -44
-1 -2 -7 2 -15 8 -15 12 -16 28 -3 49 5 6 5 17 1 24 -5 7 -3 8 5 4 7 -5 10
-14 7 -22z m18 -96 c-3 -4 -1 -8 5 -8 6 0 8 -6 5 -13 -8 -22 -31 -16 -31 8 0
12 5 22 13 22 7 0 11 -4 8 -9z m596 -548 c0 -5 -5 -10 -11 -10 -5 0 -7 5 -4
10 3 6 8 10 11 10 2 0 4 -4 4 -10z"/>
<path d="M1204 1726 c1 -8 5 -18 8 -22 4 -3 5 1 4 10 -1 8 -5 18 -8 22 -4 3
-5 -1 -4 -10z"/>
<path d="M690 2590 c-15 -21 -17 -30 -8 -30 8 0 9 -3 3 -8 -13 -9 -15 -63 -3
-55 6 3 5 -4 -1 -15 -8 -15 -8 -22 2 -25 9 -4 9 -6 0 -6 -7 -1 -13 -6 -13 -12
0 -5 4 -8 9 -5 11 7 9 -13 -2 -31 -5 -8 -3 -13 5 -13 8 0 9 -3 2 -8 -5 -4 -10
-18 -10 -32 0 -14 5 -28 10 -32 7 -5 6 -8 -3 -8 -11 0 -11 -3 0 -17 10 -11 10
-14 2 -9 -7 4 -13 2 -13 -3 0 -6 6 -11 13 -11 9 0 9 -2 0 -8 -12 -8 -13 -29 0
-49 4 -6 3 -14 -3 -18 -5 -3 -10 -11 -10 -16 0 -6 6 -7 13 -3 9 6 9 4 2 -7
-16 -22 -20 -73 -4 -64 8 6 10 4 3 -6 -13 -21 -15 -49 -4 -49 6 0 10 -5 10
-11 0 -5 -4 -8 -8 -5 -5 3 -9 -8 -10 -25 0 -20 3 -27 11 -22 7 4 6 -1 -2 -11
-13 -15 -13 -19 0 -27 10 -6 10 -9 1 -9 -14 0 -12 -21 3 -32 7 -5 6 -8 -1 -8
-6 0 -10 -13 -10 -30 0 -16 4 -30 10 -30 6 0 4 -5 -4 -10 -13 -9 -13 -11 0
-20 8 -5 10 -10 5 -10 -6 0 -11 -13 -11 -30 -1 -20 2 -27 10 -23 6 4 5 0 -2
-9 -10 -13 -10 -17 0 -21 10 -4 10 -6 1 -6 -7 -1 -13 -6 -13 -12 0 -5 5 -7 11
-3 8 5 8 1 0 -14 -14 -27 -14 -35 2 -26 10 6 10 4 0 -7 -16 -16 -17 -33 -2
-23 8 5 8 1 0 -14 -14 -27 -14 -35 1 -26 7 5 8 3 2 -7 -14 -24 -16 -51 -2 -43
7 4 4 -3 -6 -15 -19 -21 -19 -21 -1 -15 14 6 16 4 9 -7 -5 -8 -9 -23 -9 -34 0
-11 -5 -26 -9 -34 -6 -9 -5 -12 2 -7 6 3 13 2 17 -4 3 -5 2 -10 -3 -10 -12 0
-11 -34 2 -42 7 -5 4 -8 -7 -8 -17 0 -17 -1 -3 -16 9 -8 13 -21 9 -27 -12 -18
-11 -90 0 -105 6 -7 6 -12 1 -11 -21 4 -24 -2 -9 -17 11 -12 13 -20 6 -27 -15
-15 -14 -30 1 -21 7 5 8 3 3 -6 -13 -22 -14 -64 -2 -79 7 -9 8 -12 1 -8 -7 4
-11 -6 -12 -28 -1 -22 3 -35 11 -35 8 0 8 -3 2 -8 -12 -8 -13 -22 -2 -39 4 -6
2 -15 -4 -19 -8 -5 -9 -3 -4 6 5 9 4 11 -3 6 -8 -5 -9 -13 -3 -24 4 -9 7 -25
6 -35 -2 -9 1 -15 5 -12 5 3 13 -3 19 -12 7 -13 10 -14 11 -4 0 8 3 11 7 8 3
-4 12 -2 20 5 11 9 13 8 11 -2 -2 -7 3 -15 11 -18 10 -3 12 0 8 12 -5 13 -3
15 10 8 9 -5 25 -7 36 -4 15 4 18 2 12 -8 -6 -10 -4 -11 6 -4 8 5 32 10 53 11
21 1 42 7 46 14 5 6 13 8 20 4 9 -5 11 -4 6 4 -4 6 -2 18 4 26 9 11 9 15 1 15
-6 0 -11 -4 -11 -10 0 -5 -5 -10 -10 -10 -7 0 -7 6 0 20 8 14 8 20 0 20 -6 0
-8 5 -5 10 4 6 12 8 18 4 7 -3 3 2 -7 10 -18 14 -15 21 7 17 4 -1 0 11 -10 26
-17 27 -17 28 1 13 18 -14 19 -14 8 6 -6 12 -8 24 -5 28 3 3 1 6 -6 6 -7 0 -9
5 -6 10 4 6 11 8 16 5 5 -3 6 1 3 9 -3 9 -10 13 -15 10 -5 -3 -6 2 -3 10 3 9
9 14 13 11 10 -6 7 33 -4 42 -4 5 -5 1 0 -7 5 -8 4 -12 0 -7 -16 14 -15 39 1
33 8 -3 13 -2 9 3 -3 5 -2 11 2 14 5 2 2 2 -5 0 -8 -2 -10 2 -5 10 4 6 6 23 4
36 -2 16 1 21 10 16 8 -5 10 -4 5 4 -4 6 -11 9 -16 6 -5 -3 -11 -1 -15 5 -3 5
0 10 8 10 16 0 13 34 -6 58 -7 9 -6 11 6 6 16 -6 19 18 4 32 -12 12 -8 26 6
18 6 -4 3 3 -7 15 -20 22 -20 22 0 15 17 -7 17 -6 5 9 -12 16 -12 17 5 11 11
-3 15 -2 9 3 -5 4 -16 19 -23 32 -12 21 -12 23 1 18 19 -7 17 14 -3 39 -9 11
-10 15 -2 10 17 -10 35 3 24 17 -5 7 -13 22 -16 34 -6 19 -4 22 11 17 16 -6
16 -5 -2 10 -11 10 -15 15 -10 13 6 -3 10 13 10 38 0 24 -3 41 -7 38 -5 -2 -8
1 -8 6 0 6 6 11 13 12 6 0 3 4 -8 9 -18 8 -18 9 5 10 23 1 23 2 5 10 -14 6
-15 9 -5 10 10 1 9 4 -5 10 l-20 9 20 0 c17 1 17 3 5 11 -13 9 -13 10 0 11 10
0 8 3 -5 9 -18 8 -18 9 5 10 18 2 20 4 8 7 -10 2 -18 9 -18 14 0 6 4 8 8 5 5
-3 9 1 9 9 0 8 -4 12 -9 9 -4 -3 -8 0 -8 5 0 6 6 11 13 12 6 0 3 4 -8 9 -18 8
-18 9 5 10 18 2 20 4 8 7 -10 2 -18 9 -18 14 0 6 4 8 8 5 5 -3 9 1 9 8 0 8 -7
12 -15 8 -11 -4 -10 2 4 24 11 15 13 25 7 21 -8 -5 -13 -3 -13 6 0 8 8 18 18
22 15 6 15 8 -7 26 -21 18 -20 24 4 19 5 -1 1 8 -9 19 -19 20 -19 22 -1 41 14
15 15 20 4 17 -8 -2 -11 -2 -6 0 4 3 4 10 0 16 -3 7 3 4 14 -6 11 -9 23 -14
26 -10 4 3 7 -1 7 -11 0 -10 -5 -14 -12 -10 -6 4 -8 3 -4 -4 3 -6 16 -9 27 -7
13 3 19 0 16 -8 -5 -14 18 -39 27 -30 3 4 6 -1 6 -11 0 -9 5 -14 10 -11 6 3
10 -1 10 -9 0 -15 12 -21 34 -17 5 1 3 -5 -4 -14 -11 -13 -10 -14 5 -9 12 5
16 4 11 -4 -3 -6 3 -13 14 -17 11 -3 20 -12 20 -20 0 -7 7 -16 16 -19 9 -3 12
-11 8 -18 -5 -8 0 -7 11 2 17 14 18 13 12 -3 -5 -13 0 -20 16 -27 12 -5 18 -9
12 -10 -5 0 1 -9 15 -20 21 -17 22 -19 5 -14 -18 5 -18 4 -2 -6 9 -6 22 -8 27
-5 5 3 7 -1 4 -9 -9 -24 5 -39 24 -24 12 10 14 10 8 1 -4 -8 -2 -13 4 -13 6 0
9 -4 5 -9 -3 -6 4 -8 15 -6 18 3 19 1 9 -17 -8 -15 -8 -19 0 -13 14 8 43 -13
35 -26 -2 -5 7 -11 21 -15 14 -3 24 -9 21 -11 -8 -9 23 -35 33 -28 6 3 8 -3 6
-15 -2 -11 -1 -19 3 -19 4 1 14 1 22 0 13 -1 13 -2 0 -11 -12 -8 -11 -10 6
-10 11 0 30 -11 42 -25 12 -14 28 -25 34 -25 9 0 8 -3 -2 -10 -13 -8 -12 -10
3 -10 10 0 22 -10 27 -22 5 -13 9 -19 9 -15 1 4 7 2 15 -5 8 -7 12 -16 9 -20
-2 -5 1 -8 7 -8 6 0 8 -5 4 -12 -5 -8 0 -7 11 2 10 8 16 10 12 4 -4 -7 0 -15
9 -18 9 -4 14 -9 11 -13 -10 -10 56 -54 72 -48 11 5 12 3 1 -10 -11 -13 -10
-14 5 -9 14 6 16 4 10 -7 -8 -12 -6 -12 9 0 9 8 16 10 15 5 -4 -21 2 -28 11
-14 8 13 10 13 10 1 0 -11 4 -10 13 4 11 14 16 15 22 5 6 -9 4 -11 -5 -5 -9 6
-11 4 -5 -5 6 -10 12 -8 24 9 13 17 19 19 28 10 10 -10 11 -6 7 15 -4 26 -3
27 11 12 21 -20 32 -21 15 -1 -9 10 -9 15 -1 15 6 0 10 6 9 13 -2 6 2 11 9 10
6 -1 17 5 25 14 11 14 11 16 -1 8 -10 -5 -12 -4 -7 3 4 7 14 12 22 12 8 0 14
6 14 13 0 19 -47 60 -59 53 -7 -5 -8 -1 -4 10 4 12 3 15 -5 10 -7 -4 -12 -2
-12 4 0 6 -4 9 -9 6 -5 -4 -8 5 -7 19 2 13 0 22 -5 20 -4 -3 -11 0 -14 6 -4 5
-13 8 -21 5 -8 -3 -11 0 -8 8 6 17 -32 50 -47 40 -8 -4 -10 -3 -5 5 4 6 0 14
-8 17 -9 3 -16 13 -16 21 0 8 -6 13 -12 11 -15 -5 -48 34 -48 57 0 9 -5 13
-10 10 -6 -3 -13 1 -16 9 -3 9 -12 16 -19 16 -13 0 -31 36 -27 53 1 4 -6 3
-17 -2 -22 -12 -35 -3 -20 15 7 8 6 14 -2 20 -8 5 -10 3 -4 -7 4 -8 -1 -5 -12
6 -11 11 -18 23 -16 28 6 11 -21 4 -30 -8 -4 -5 -6 1 -5 15 2 16 -2 24 -9 23
-7 -2 -13 2 -13 8 0 5 -6 7 -12 3 -9 -5 -9 -2 1 9 12 15 11 17 -7 17 -12 0
-24 5 -28 12 -5 7 -2 9 7 4 8 -4 5 0 -6 9 -11 9 -18 18 -17 21 2 3 0 9 -4 12
-4 4 -4 1 0 -5 4 -7 2 -13 -3 -13 -6 0 -11 5 -11 11 0 5 -6 7 -12 3 -9 -5 -9
-2 1 9 12 15 11 17 -8 17 -12 0 -19 5 -16 10 3 6 -1 10 -9 10 -9 0 -16 7 -16
16 0 8 -4 13 -9 10 -10 -7 -24 22 -16 33 2 5 -6 7 -20 6 -18 -3 -23 1 -20 16
3 17 -5 23 -27 20 -4 0 -10 8 -13 19 -4 11 -11 20 -16 20 -6 0 -7 -5 -3 -12 4
-7 3 -8 -5 -4 -9 6 -9 11 1 24 11 13 10 15 -10 10 -20 -6 -22 -4 -10 10 10 12
10 14 1 8 -7 -4 -13 -2 -13 4 0 6 -8 10 -17 8 -12 -2 -17 3 -15 15 2 9 -3 17
-11 17 -8 0 -22 10 -33 23 -19 22 -19 22 2 5 11 -10 24 -18 29 -18 4 0 -4 9
-19 21 -14 11 -30 18 -36 14 -6 -4 -7 1 -3 11 5 14 3 16 -11 11 -10 -4 -15 -3
-11 3 3 6 1 10 -5 10 -6 0 -8 5 -5 10 3 6 0 10 -8 10 -8 0 -18 7 -21 16 -3 9
-11 12 -18 8 -10 -6 -10 -4 0 8 10 13 10 18 1 24 -8 4 -9 3 -5 -4 10 -17 -3
-15 -21 3 -8 8 -19 12 -25 9 -7 -4 -8 -2 -4 5 4 6 13 8 19 5 7 -3 -2 7 -19 22
-17 16 -37 39 -43 51 -7 14 -17 20 -26 17 -10 -4 -15 0 -15 11 0 9 -4 13 -10
10 -5 -3 -10 -2 -10 3 0 5 -13 12 -30 14 -16 3 -30 0 -30 -5 0 -5 -6 -4 -14 2
-11 9 -15 9 -19 -1 -3 -10 -8 -11 -26 0 -30 18 -37 15 -61 -18z m233 -35 c4
-8 3 -16 -1 -19 -4 -3 -9 4 -9 15 -2 23 3 25 10 4z m32 -533 c-3 -3 -11 0 -18
7 -9 10 -8 11 6 5 10 -3 15 -9 12 -12z m875 -377 c7 -9 8 -15 2 -15 -5 0 -12
7 -16 15 -3 8 -4 15 -2 15 2 0 9 -7 16 -15z m45 -44 c3 -5 2 -12 -3 -15 -5 -3
-9 1 -9 9 0 17 3 19 12 6z m90 -91 c16 -17 16 -20 3 -15 -9 4 -19 13 -22 21
-7 19 -2 18 19 -6z m-255 -90 c0 -5 -2 -10 -4 -10 -3 0 -8 5 -11 10 -3 6 -1
10 4 10 6 0 11 -4 11 -10z"/>
<path d="M1220 2582 c0 -4 10 -13 23 -21 22 -14 22 -14 3 8 -20 22 -26 25 -26
13z"/>
<path d="M2600 2470 c-8 -5 -12 -12 -9 -15 4 -3 12 1 19 10 14 17 11 19 -10 5z"/>
<path d="M2241 2107 c-13 -21 -12 -21 5 -5 10 10 16 20 13 22 -3 3 -11 -5 -18
-17z"/>
<path d="M1700 2101 c0 -5 7 -12 16 -15 14 -5 15 -4 4 9 -14 17 -20 19 -20 6z"/>
<path d="M1962 1840 c7 -11 17 -20 22 -20 5 0 1 9 -9 20 -10 11 -20 20 -22 20
-2 0 2 -9 9 -20z"/>
<path d="M1250 1769 c0 -5 5 -7 10 -4 6 3 10 8 10 11 0 2 -4 4 -10 4 -5 0 -10
-5 -10 -11z"/>
<path d="M1720 1763 c0 -6 8 -17 18 -24 16 -13 16 -13 2 6 -8 11 -16 22 -17
24 -2 2 -3 0 -3 -6z"/>
<path d="M1279 1678 c-6 -21 -5 -38 1 -38 5 0 8 9 7 20 -1 17 -5 26 -8 18z"/>
<path d="M1375 1390 c3 -5 8 -10 11 -10 2 0 4 5 4 10 0 6 -5 10 -11 10 -5 0
-7 -4 -4 -10z"/>
<path d="M1867 1303 c4 -9 2 -14 -3 -10 -5 3 -10 -3 -10 -14 0 -26 9 -24 22 5
9 20 9 26 -2 30 -9 3 -11 0 -7 -11z"/>
<path d="M1816 1278 c3 -4 9 -8 15 -8 5 0 9 4 9 8 0 5 -7 9 -15 9 -8 0 -12 -4
-9 -9z"/>
<path d="M1871 1243 c-6 -10 -11 -13 -11 -6 0 6 -9 11 -19 10 -11 0 -17 -5
-15 -9 3 -4 0 -8 -7 -8 -7 0 -9 -3 -6 -6 4 -4 13 -2 20 4 8 7 17 9 20 5 4 -3
-1 -12 -11 -20 -15 -13 -15 -13 5 -3 13 6 27 19 33 30 13 25 5 27 -9 3z"/>
<path d="M1896 1233 c-6 -14 -5 -15 5 -6 7 7 10 15 7 18 -3 3 -9 -2 -12 -12z"/>
<path d="M1865 1200 c-3 -6 1 -7 9 -4 18 7 21 14 7 14 -6 0 -13 -4 -16 -10z"/>
</g>
</svg>
