<?xml version="1.0" encoding="UTF-8"?>
<svg version="1.1" id="icons-display-boards" xmlns="http://www.w3.org/2000/svg"
      xmlns:xlink="http://www.w3.org/1999/xlink" x="0px" y="0px" viewBox="0 0 230 230"
      enable-background="new 0 0 230 230" xml:space="preserve">

      <circle fill="#FF006C" id="circle" cx="115" cy="115" r="115" /> <!-- 004CBA / 00B4FF -->
      <g id="surface1" transform="translate(50 50)">
<path style=" stroke:none;fill-rule:nonzero;fill:#fff;fill-opacity:1;" d="M 1.769531 2.417969 L 1.769531 4.183594 L 22.488281 4.183594 L 28.265625 10.710938 L 34.042969 17.246094 L 23.761719 17.273438 C 18.117188 17.28125 13.492188 17.3125 13.492188 17.339844 C 13.492188 17.367188 23.578125 29.554688 35.914062 44.421875 L 58.328125 71.445312 L 58.335938 89.035156 L 58.335938 106.625 L 45.757812 106.652344 L 33.167969 106.679688 L 32.472656 106.894531 C 31.390625 107.230469 30.730469 107.628906 29.949219 108.402344 C 29.121094 109.21875 28.582031 110.207031 28.332031 111.339844 C 28.097656 112.371094 28.171875 113.96875 28.5 114.917969 C 29.234375 117.074219 30.757812 118.40625 32.984375 118.851562 C 33.664062 118.992188 36.613281 119 65.175781 118.980469 L 96.625 118.953125 L 97.277344 118.738281 C 98.335938 118.378906 98.996094 117.976562 99.703125 117.269531 C 100.859375 116.109375 101.433594 114.613281 101.433594 112.816406 C 101.414062 109.90625 99.730469 107.648438 96.996094 106.847656 C 96.476562 106.699219 95.507812 106.679688 83.671875 106.652344 L 70.898438 106.625 L 70.898438 71.726562 L 92.902344 44.578125 C 105.007812 29.648438 114.90625 17.402344 114.90625 17.367188 C 114.90625 17.320312 97.769531 17.292969 76.835938 17.292969 L 38.753906 17.292969 L 31.402344 8.972656 L 24.050781 0.660156 L 12.914062 0.652344 L 1.769531 0.652344 Z M 1.769531 2.417969 "/>
</g>
  </svg>