<?xml version="1.0" encoding="UTF-8"?>
<svg version="1.1" id="icons-display-boards" xmlns="http://www.w3.org/2000/svg"
                              xmlns:xlink="http://www.w3.org/1999/xlink" x="0px" y="0px" viewBox="0 0 230 230"
                              enable-background="new 0 0 230 230" xml:space="preserve">
                              <circle fill="#D6AC7D" id="circle2" cx="115" cy="115" r="115" />
                      
                              <g id="almendra" transform="translate(60 60)" opacity="1">
                                  <path style=" stroke:none;fill-rule:nonzero;fill:#fff;fill-opacity:1;" d="M 79.445312 0.226562 C 51.617188 2.179688 28.4375 14.800781 12.464844 36.703125 C -0.179688 54.085938 -3.414062 73.785156 3.839844 89.394531 L 4.785156 91.4375 L 5.523438 88.789062 C 7.703125 80.882812 13.25 70.640625 20.84375 60.53125 C 26.03125 53.613281 30.414062 48.628906 37.507812 41.53125 C 46.3125 32.726562 53.59375 26.660156 63.117188 20.304688 C 75.582031 11.949219 87.238281 6.085938 101.050781 1.210938 C 101.636719 1.011719 101.164062 0.921875 97.929688 0.5625 C 94.042969 0.132812 83.488281 -0.046875 79.445312 0.226562 Z M 79.445312 0.226562 "/>
                                  <path style=" stroke:none;fill-rule:nonzero;fill:#fff;fill-opacity:1;" d="M 101.296875 8.242188 C 98.695312 9.164062 91.773438 12.039062 88.765625 13.453125 C 66.796875 23.671875 47.03125 39.148438 30.636719 58.960938 C 21.089844 70.484375 14.242188 82.273438 11.859375 91.167969 C 11.273438 93.371094 11.164062 94.203125 11.140625 96.582031 C 11.117188 100.691406 11.476562 101.390625 15.609375 104.847656 C 32.546875 119.042969 56.332031 118.28125 77.917969 102.804688 C 94.808594 90.675781 106.308594 74.121094 111.71875 54.132812 C 114.664062 43.257812 115.695312 28.976562 114.4375 17.070312 C 114.078125 13.835938 113.988281 13.363281 113.789062 13.949219 C 107.160156 33.375 96.042969 52.335938 81.21875 69.40625 C 78.230469 72.839844 68.886719 82.164062 65.25 85.328125 C 62.238281 87.957031 58.128906 91.28125 55.816406 92.988281 C 54.132812 94.222656 52.625 94.46875 51.324219 93.664062 C 49.886719 92.785156 49.367188 91.101562 50.042969 89.550781 C 50.402344 88.765625 50.984375 88.203125 53.074219 86.609375 C 61.429688 80.296875 71.335938 70.773438 78.949219 61.679688 C 87.777344 51.144531 95.953125 38.320312 101.636719 26.054688 C 103.1875 22.707031 106.421875 14.867188 106.800781 13.476562 C 106.890625 13.140625 98.515625 21.359375 85.53125 34.296875 C 73.515625 46.3125 63.855469 55.792969 63.496094 55.929688 C 60.644531 56.984375 58.015625 54.355469 59.070312 51.503906 C 59.207031 51.144531 68.664062 41.507812 80.703125 29.46875 C 92.449219 17.722656 101.972656 8.085938 101.859375 8.109375 C 101.726562 8.109375 101.476562 8.175781 101.296875 8.242188 Z M 101.296875 8.242188 "/>
                              </g>
                          </svg>
