<?xml version="1.0" encoding="UTF-8"?>
<svg version="1.1" id="icons-display-boards" xmlns="http://www.w3.org/2000/svg"
                              xmlns:xlink="http://www.w3.org/1999/xlink" x="0px" y="0px" viewBox="0 0 230 230"
                              enable-background="new 0 0 230 230" xml:space="preserve">
                              <circle id="circle3" fill="#FF8C20" cx="115" cy="115" r="115" />
                              <g id="grain" transform="translate(0 0)" opacity="1">
                                  <path fill="#FFFFFF" d="M82.5,138.1c5.6,3.7,11.1,7.2,16.6,10.7c2.1,1.3,4.2,2.4,6.3,3.7c4.7,2.9,7.9,6.8,7.6,12.8
                          c-0.1,1.5,0.4,3.1,1,4.6c0.1-0.5,0.2-0.9,0.2-1.4c-0.6-9.2,4.7-14.2,12.2-18c6.6-3.4,13-7.5,19.2-11.1c1.8,5.4-1.9,16.1-7.7,20.3
                          c-3.2,2.3-6.4,4.4-9.6,6.7c-7,5-10.9,11.6-10.7,20.7c-2.9,0-5.5,0-8.5,0c1.2-13.7-8.1-20.3-17.5-26.6
                          C83.2,154.7,82.4,146.5,82.5,138.1z" />
                                  <path fill="#FFFFFF" d="M116.3,38.7c2.9,6.6,6.4,13.7,9.3,20.9c4.9,12.4,0.8,25.4-9.9,32c-9.2-5.4-13.9-17.8-10.4-28.6
                          c1.4-4.2,3.6-8.2,5.5-12.3C112.6,46.5,114.6,42.4,116.3,38.7z" />
                                  <path fill="#FFFFFF" d="M116.5,149.2c0.9-6.4,1.4-12.8,2.6-19c1-5.1,4.3-9,8.6-11.8c5.9-3.8,12-7.3,18.1-10.9
                          c3.1,8.7-0.8,22.7-8.1,28.3c-3.1,2.3-6.5,4.2-9.8,6.3C124.3,144.4,120.6,146.6,116.5,149.2z" />
                                  <path fill="#FFFFFF" d="M111.5,118c-3.9-2.6-7.5-4.9-11.1-7.4c-3.3-2.2-6.7-4.4-9.9-6.8c-4.7-3.7-7.3-8.7-7.4-14.8
                          c-0.1-4.5,0-8.9,0-13.8c6.8,4.4,13.4,8.4,19.6,13c4.8,3.5,7.2,8.7,7.6,14.8C110.6,108.1,111.1,113.1,111.5,118z" />
                                  <path fill="#FFFFFF" d="M110.9,148.8c-4.4-2.8-8.5-5.4-12.6-8.1c-2.5-1.7-5.1-3.4-7.5-5.2c-4.7-3.7-7.8-8.4-8.1-14.5
                          c-0.2-4.8,0-9.6,0-14.9c6.7,4.4,13.3,8.4,19.5,13c4.4,3.2,6.8,7.9,7.4,13.4C110.2,138,110.5,143.5,110.9,148.8z" />
                                  <path fill="#FFFFFF" d="M117.2,118c0.5-4.9,1-10.4,1.7-15.8c0.8-6,3.7-10.9,8.6-14.3c6.1-4.1,12.6-7.7,19-11.6
                          c3.3,14.6-1.9,25.7-15.3,33.3C126.4,112.4,121.8,115.2,117.2,118z" />
                              </g>
                          </svg>