<?xml version="1.0" encoding="UTF-8"?>
<svg version="1.1" id="icons-display-boards" xmlns="http://www.w3.org/2000/svg"
                              xmlns:xlink="http://www.w3.org/1999/xlink" x="0px" y="0px" viewBox="0 0 230 230"
                              enable-background="new 0 0 230 230" xml:space="preserve">
                      
                              <circle fill="#0069FF" id="circle" cx="115" cy="115" r="115" /> <!-- 004CBA / 00B4FF -->
                      
                              <g id="bottle" transform="translate(0 0)" opacity="1">
                                  <path fill="#FFFFFF" d="M137.2,53.7c0.3-6.5,0.4-15.9-8.8-15.9h-27.1c-9.2,0-9.2,9.4-8.9,15.9H137.2z" />
                                  <path fill="#FFFFFF" d="M143.8,85c-3.8-6-6.5-7.8-6.5-15v-9.8H125H105H92.7v9.8c0,7.2-2.7,9.1-6.5,15c-4.7,7.5-10.6,14.3-10.6,24.5
                              v50.5c0,20,7.7,28.6,21.1,28.6h16.6h5.9h14.2c13.4,0,21.1-8.6,21.1-23.7v-55.4C154.4,94.4,148.5,92.4,143.8,85z M140.8,163.6
                              c0,2.2,0,10.2-9.8,10.2c-9.8,0-25.4,0-33,0s-7.3-6.8-7.3-10.7c0-3.9,0-44.4,0-44.4l0-16.1c24.8,9,18.5-5.2,35.7-5.4
                              c12.5-0.1,14.4,5.6,14.4,5.6S140.8,161.4,140.8,163.6z" />
                              </g>
                          </svg>