<?xml version="1.0" standalone="no"?>
<!DOCTYPE svg PUBLIC "-//W3C//DTD SVG 20010904//EN"
 "http://www.w3.org/TR/2001/REC-SVG-20010904/DTD/svg10.dtd">
<svg version="1.0" xmlns="http://www.w3.org/2000/svg"
 width="1024.000000pt" height="1024.000000pt" viewBox="0 0 1024.000000 1024.000000"
 preserveAspectRatio="xMidYMid meet">
<metadata>
</metadata>
<g transform="translate(0.000000,1024.000000) scale(0.100000,-0.100000)"
fill="#ffffff" stroke="none">  <!-- #ffeab0 -->
<path d="M2075 7482 c-47 -19 -95 -67 -102 -104 -3 -15 -8 -28 -12 -28 -6 0
-12 -29 -14 -72 -1 -10 -5 -18 -9 -18 -4 0 -8 -10 -8 -23 0 -12 -9 -53 -20
-91 -11 -38 -17 -73 -14 -77 3 -5 0 -9 -7 -9 -7 0 -9 -3 -6 -7 4 -3 1 -13 -6
-21 -10 -13 -9 -14 3 -7 12 7 13 6 4 -6 -7 -8 -17 -41 -24 -74 -7 -33 -15 -67
-18 -75 -3 -8 -6 -19 -7 -25 -2 -5 -15 -59 -30 -119 -15 -59 -29 -116 -30
-125 -2 -9 -4 -18 -5 -21 -1 -3 -2 -9 -1 -14 1 -4 -4 -14 -10 -22 -6 -8 -9
-14 -6 -14 2 0 -4 -30 -15 -67 -10 -38 -20 -79 -23 -93 -2 -14 -11 -51 -20
-83 -8 -32 -13 -62 -10 -67 3 -5 1 -11 -5 -15 -30 -18 4 -138 51 -182 56 -51
51 -51 691 -51 l597 0 12 56 c6 31 12 62 13 67 1 6 4 15 7 20 4 6 5 19 3 30
-1 10 1 24 5 30 5 5 11 30 15 55 3 25 11 65 16 90 6 25 13 59 16 75 9 56 10
60 15 70 4 6 5 20 4 33 -1 12 2 22 5 22 4 0 6 14 5 30 -1 17 1 30 5 30 6 0 18
56 34 160 2 14 5 26 6 28 1 1 4 11 5 22 1 11 4 22 5 25 1 3 3 13 5 23 1 9 5
35 10 57 4 22 9 49 12 60 17 87 20 105 15 110 -3 3 0 5 6 5 6 0 10 8 10 18 0
9 2 31 6 47 3 17 9 46 12 65 3 19 14 73 24 119 11 47 17 88 14 93 -3 4 0 8 7
8 7 0 10 3 7 6 -4 3 -2 18 2 34 6 19 4 30 -3 33 -7 2 -280 4 -608 4 -509 0
-601 -2 -634 -15z"/>
<path d="M3720 7490 c-6 -3 -12 -21 -13 -38 -1 -18 -4 -32 -7 -32 -3 0 -6 -8
-7 -17 -2 -27 -11 -88 -13 -88 -1 0 -4 -11 -6 -25 -10 -51 -13 -65 -14 -65 -1
0 -4 -15 -14 -80 -2 -11 -4 -20 -6 -20 -1 0 -3 -9 -4 -20 -2 -11 -9 -47 -16
-80 -7 -33 -13 -75 -14 -93 -2 -17 -6 -35 -9 -39 -4 -3 -7 -17 -7 -30 0 -12
-3 -23 -7 -23 -5 0 -8 -12 -9 -27 0 -16 -4 -46 -8 -68 -4 -22 -8 -48 -9 -57
-1 -10 -4 -18 -7 -18 -4 0 -7 -6 -7 -12 0 -23 -19 -133 -23 -133 -3 0 -12 -60
-11 -78 0 -9 -4 -15 -8 -13 -4 3 -6 -11 -5 -30 2 -19 0 -34 -4 -34 -4 0 -8 -8
-9 -17 -1 -18 -8 -59 -17 -98 -8 -38 -20 -120 -18 -127 1 -5 -1 -8 -6 -8 -7 0
-11 -27 -15 -92 -1 -14 -5 -24 -9 -22 -4 3 -6 -4 -5 -15 1 -19 16 -19 749 -19
422 0 745 4 742 9 -3 5 -2 9 3 9 6 0 10 1434 4 1496 -1 12 -1171 17 -1191 4z"/>
<path d="M5302 7486 c-4 -6 -8 -348 -7 -761 l1 -750 669 -2 c492 -1 674 2 684
10 12 9 13 9 7 0 -5 -10 10 -13 64 -12 38 1 72 4 74 8 2 3 -3 34 -10 69 -7 35
-15 78 -18 95 -2 18 -5 33 -6 35 -3 3 -4 8 -15 67 -5 28 -10 55 -11 60 -1 6
-3 12 -4 15 -2 5 -7 34 -14 80 -2 14 -5 25 -6 25 -1 0 -3 11 -5 25 -2 14 -10
54 -18 90 -8 36 -13 68 -11 72 2 4 0 9 -5 13 -5 3 -8 14 -6 25 2 11 1 20 -4
20 -4 0 -8 10 -8 23 -2 21 -7 51 -16 92 -4 16 -19 96 -22 115 0 3 -3 10 -6 15
-3 6 -4 20 -3 33 0 12 -2 22 -5 22 -4 0 -8 10 -9 23 -1 23 -6 52 -17 102 -3
17 -8 39 -10 50 -2 11 -7 41 -13 67 -5 26 -7 50 -4 53 3 3 1 5 -5 5 -6 0 -9
10 -9 23 1 12 0 27 -3 32 -3 6 -6 17 -7 25 0 8 -3 22 -7 30 -5 14 -17 79 -19
106 -2 15 -1185 16 -1196 0z"/>
<path d="M6886 7483 c-3 -7 -2 -13 3 -13 4 0 7 -10 6 -22 -1 -13 2 -29 8 -35
5 -7 7 -13 4 -13 -3 0 -1 -17 4 -37 5 -21 11 -51 14 -68 3 -16 7 -41 10 -55
18 -80 25 -124 20 -128 -3 -3 0 -11 6 -18 6 -7 11 -29 12 -48 1 -20 5 -36 9
-36 4 0 6 -8 6 -17 0 -10 3 -31 6 -48 8 -31 15 -66 20 -100 2 -11 4 -20 5 -20
1 0 4 -11 6 -25 2 -14 6 -36 9 -50 3 -14 7 -36 10 -50 3 -14 8 -38 11 -55 4
-16 9 -46 12 -65 3 -19 10 -38 17 -42 8 -5 7 -8 -3 -8 -9 0 -10 -4 -4 -12 6
-7 9 -21 8 -30 -2 -10 1 -18 6 -18 6 0 8 -4 5 -8 -3 -4 -1 -26 4 -48 5 -21 11
-50 14 -64 2 -14 10 -50 16 -80 7 -30 13 -65 13 -77 1 -13 4 -23 7 -23 4 0 6
-10 5 -22 -1 -13 0 -27 4 -33 3 -5 6 -14 7 -20 5 -28 15 -82 19 -95 2 -8 4
-18 4 -21 2 -12 1192 -7 1225 5 35 12 119 93 111 106 -3 5 -1 11 4 15 12 7 3
160 -10 160 -1 0 -3 9 -5 20 -1 11 -6 31 -9 45 -4 14 -8 34 -10 45 -2 11 -4
20 -5 20 -1 0 -3 7 -5 15 -2 8 -10 40 -18 70 -9 30 -13 58 -11 62 3 5 1 8 -5
8 -5 0 -8 8 -7 18 2 9 0 19 -5 22 -4 3 -9 23 -11 44 -1 20 -6 40 -10 42 -4 3
-8 15 -8 28 0 12 -3 26 -7 29 -7 7 -15 50 -14 80 0 9 -4 17 -7 17 -4 0 -9 8
-10 18 -3 31 -7 47 -15 60 -5 6 -6 12 -3 12 2 0 0 15 -5 33 -5 17 -12 45 -15
61 -2 16 -9 36 -13 45 -5 9 -9 21 -9 26 -2 31 -27 135 -33 135 -4 0 -6 11 -4
25 1 14 -1 25 -5 25 -4 0 -7 6 -7 13 -2 45 -31 127 -46 127 -5 0 -6 4 -2 9 7
12 -82 74 -94 66 -5 -3 -12 -1 -15 4 -3 5 -267 8 -610 8 -492 0 -606 -3 -610
-14z"/>
<path d="M2057 5582 c-2 -4 -2 -16 -1 -27 2 -11 5 -42 8 -70 10 -89 14 -114
22 -126 5 -8 3 -9 -6 -4 -9 5 -11 4 -6 -4 14 -21 28 -141 18 -142 -4 0 -65 -2
-137 -4 -155 -3 -176 -7 -217 -43 -61 -53 -67 -81 -68 -334 0 -188 2 -233 15
-258 9 -16 12 -30 8 -30 -18 0 81 -78 110 -86 18 -5 112 -9 210 -9 200 0 185
7 193 -83 2 -26 6 -68 8 -94 2 -26 6 -51 9 -55 3 -5 6 -31 8 -58 1 -28 5 -54
7 -59 5 -9 14 -102 14 -143 0 -13 4 -23 9 -23 11 0 7 -23 -6 -32 -6 -5 -6 -8
2 -8 6 0 12 -15 13 -32 1 -18 2 -52 3 -75 1 -24 5 -43 10 -43 4 0 6 -3 6 -7
-4 -27 2 -103 9 -100 4 3 8 -18 8 -46 3 -79 8 -137 14 -137 4 0 8 -41 13 -147
1 -18 5 -33 8 -33 4 0 6 -12 7 -27 0 -75 2 -84 15 -77 9 6 9 5 0 -8 -7 -8 -11
-17 -8 -20 5 -4 17 -103 18 -145 1 -13 4 -23 7 -23 3 0 5 -21 5 -47 -1 -27 2
-52 5 -58 3 -5 6 -17 5 -25 -1 -8 3 -23 7 -32 6 -12 5 -18 -4 -18 -8 0 -9 -3
-3 -8 6 -4 11 -11 11 -17 1 -5 5 -37 8 -70 4 -33 10 -85 14 -115 4 -30 7 -106
6 -167 0 -62 3 -113 8 -113 5 0 6 -4 3 -10 -11 -18 79 -129 93 -115 3 3 16 -2
30 -11 17 -11 22 -12 16 -3 -6 11 -5 12 7 3 9 -7 86 -10 229 -9 118 1 216 3
218 5 1 1 12 3 24 3 12 1 30 9 39 18 9 9 23 21 30 25 8 5 25 24 38 43 22 31
24 46 27 155 1 67 2 123 3 126 1 7 3811 7 3812 0 1 -3 3 -54 4 -115 4 -131 4
-133 35 -178 25 -37 92 -82 104 -70 3 3 6 2 6 -3 0 -12 440 -12 459 0 10 7 12
6 6 -4 -12 -20 87 39 107 64 10 12 21 26 26 31 5 6 7 16 4 23 -2 6 0 12 5 12
5 0 9 55 9 123 1 110 4 148 19 267 4 30 8 60 19 156 2 11 7 27 11 34 6 9 4 11
-4 5 -10 -5 -11 -3 -4 11 5 11 8 29 7 42 0 12 1 22 5 22 3 0 6 23 6 51 0 28 3
53 6 55 4 2 7 19 8 36 0 18 3 49 6 68 3 19 8 62 11 95 3 33 10 65 15 72 7 7 6
14 -1 18 -6 3 -7 12 -3 18 8 13 14 62 16 134 1 24 5 43 9 43 4 0 6 8 6 18 -1
16 8 100 16 152 4 24 16 120 21 170 1 14 6 36 10 49 5 18 4 22 -6 15 -12 -6
-12 -5 0 9 7 9 11 17 7 17 -3 0 -1 11 4 25 7 18 6 25 -3 25 -9 0 -9 2 -1 8 7
4 15 36 18 72 3 36 8 81 11 100 3 19 6 50 6 68 1 17 4 34 8 36 4 3 7 25 6 50
0 25 2 46 6 46 3 0 5 10 5 22 -1 22 0 22 190 23 188 1 191 1 236 28 26 15 57
44 70 64 22 36 23 48 28 276 3 130 2 237 -1 237 -4 0 -9 13 -12 29 -7 34 -62
101 -83 101 -8 0 -14 4 -14 8 0 12 -6 12 -168 16 -78 1 -145 6 -148 9 -4 3 -3
14 1 24 7 17 15 96 17 176 1 20 4 37 7 37 3 0 7 19 9 43 2 23 4 53 5 67 l2 25
-3047 2 c-1676 2 -3049 -1 -3051 -5z"/>
</g>
</svg>
