<?xml version="1.0" standalone="no"?>
<!DOCTYPE svg PUBLIC "-//W3C//DTD SVG 20010904//EN"
 "http://www.w3.org/TR/2001/REC-SVG-20010904/DTD/svg10.dtd">
<svg version="1.0" xmlns="http://www.w3.org/2000/svg"
 width="180.000000pt" height="180.000000pt" viewBox="0 0 180.000000 180.000000"
 preserveAspectRatio="xMidYMid meet">
<metadata>
Created by potrace 1.14, written by Peter Selinger 2001-2017
</metadata>
<g transform="translate(0.000000,180.000000) scale(0.100000,-0.100000)"
fill="#ff0066" stroke="none">
<path d="M857 1500 c-29 -34 -60 -156 -53 -205 8 -46 40 -115 72 -152 l28 -33
29 33 c65 71 84 154 60 257 -27 119 -85 161 -136 100z"/>
<path d="M432 1399 c-61 -24 -41 -113 52 -233 52 -68 221 -126 246 -86 14 23
1 91 -31 157 -26 53 -39 68 -97 106 -93 61 -129 73 -170 56z"/>
<path d="M1297 1394 c-21 -7 -65 -32 -97 -55 -49 -34 -66 -54 -89 -103 -32
-67 -45 -133 -32 -155 26 -42 193 16 248 85 38 49 80 130 87 167 10 56 -47 86
-117 61z"/>
<path d="M865 1000 c-42 -17 -70 -59 -70 -106 0 -36 6 -49 33 -76 27 -27 40
-33 77 -33 37 0 50 6 77 33 27 26 33 40 33 75 0 82 -77 138 -150 107z"/>
<path d="M400 985 c-119 -31 -160 -83 -106 -134 30 -28 142 -60 199 -56 50 3
123 35 165 74 l31 27 -32 28 c-70 62 -168 85 -257 61z"/>
<path d="M1258 985 c-44 -16 -86 -41 -114 -69 l-21 -21 28 -27 c72 -70 184
-90 294 -53 91 31 119 79 71 124 -48 45 -190 70 -258 46z"/>
<path d="M676 722 c-4 -3 -17 -7 -29 -9 -12 -2 -50 -17 -84 -33 -49 -24 -69
-41 -98 -85 -20 -30 -45 -78 -57 -105 -19 -47 -20 -51 -4 -75 36 -54 89 -47
201 29 49 34 66 53 93 106 18 36 34 86 36 112 4 44 2 47 -24 57 -16 5 -31 7
-34 3z"/>
<path d="M1078 714 c-12 -21 3 -100 31 -159 32 -70 74 -107 174 -155 64 -31
88 -29 117 7 24 30 20 55 -22 132 -45 83 -68 109 -130 141 -57 30 -161 50
-170 34z"/>
<path d="M873 644 c-80 -90 -89 -234 -23 -342 25 -40 42 -48 79 -32 32 13 46
39 65 120 24 101 5 180 -61 258 l-28 33 -32 -37z"/>
</g>
</svg>
