<?xml version="1.0" standalone="no"?>
<!DOCTYPE svg PUBLIC "-//W3C//DTD SVG 20010904//EN"
 "http://www.w3.org/TR/2001/REC-SVG-20010904/DTD/svg10.dtd">
<svg version="1.0" xmlns="http://www.w3.org/2000/svg"
 width="192.000000pt" height="192.000000pt" viewBox="0 0 192.000000 192.000000"
 preserveAspectRatio="xMidYMid meet">
<metadata>
Created by potrace 1.14, written by Peter Selinger 2001-2017
</metadata>
<g transform="translate(0.000000,192.000000) scale(0.100000,-0.100000)"
fill="#E6037E" stroke="none">
<path d="M813 1742 c-32 -3 -32 -4 -30 -54 l2 -51 38 0 c20 1 44 2 52 2 11 1
15 13 15 50 0 53 -9 60 -77 53z"/>
<path d="M1041 1742 c-6 -2 -11 -25 -11 -52 0 -45 2 -48 28 -52 15 -2 38 -1
52 2 22 5 25 12 28 53 3 40 0 47 -15 48 -10 0 -30 2 -45 3 -14 1 -31 0 -37 -2z"/>
<path d="M667 1632 c-13 -3 -17 -15 -17 -53 l0 -50 53 3 52 3 2 42 c1 24 -3
46 -9 49 -13 8 -55 11 -81 6z"/>
<path d="M1190 1591 c0 -28 3 -52 8 -52 4 -1 29 -2 55 -3 l48 -2 -3 51 -3 50
-52 3 -53 3 0 -50z"/>
<path d="M537 1493 c-8 -14 -4 -93 4 -94 12 -1 75 -1 92 0 8 1 11 16 9 51 l-4
50 -48 0 c-27 0 -51 -3 -53 -7z"/>
<path d="M1315 1450 c0 -27 4 -50 10 -51 55 -5 88 -3 91 6 2 5 5 28 7 50 l2
40 -55 3 -55 3 0 -51z"/>
<path d="M934 1422 c-36 -36 -54 -81 -49 -122 5 -36 52 -121 72 -127 29 -10
85 85 85 145 0 47 -29 107 -57 120 -20 9 -28 7 -51 -16z"/>
<path d="M429 1350 c-2 -18 -2 -72 0 -82 1 -5 24 -8 51 -8 40 0 50 3 51 18 2
18 1 73 0 83 -1 3 -23 5 -51 5 -37 0 -50 -4 -51 -16z"/>
<path d="M1426 1360 c-2 -3 -3 -25 -2 -50 l1 -45 53 -2 53 -1 -3 51 -3 52 -48
0 c-27 1 -50 -1 -51 -5z"/>
<path d="M621 1321 c-10 -17 -9 -30 4 -92 11 -50 80 -95 155 -101 l35 -3 -2
52 c-3 66 -34 116 -89 143 -51 25 -90 26 -103 1z"/>
<path d="M1202 1305 c-44 -24 -80 -85 -84 -140 -3 -40 -3 -40 35 -43 93 -8
197 99 173 176 -10 30 -77 33 -124 7z"/>
<path d="M310 1240 c-4 -3 -7 -25 -6 -50 l1 -45 53 -3 52 -3 0 54 0 53 -46 0
c-25 -1 -49 -3 -54 -6z"/>
<path d="M1557 1242 c-14 -3 -17 -12 -15 -53 l3 -49 53 0 52 0 0 50 c0 28 -3
51 -7 51 -26 4 -71 5 -86 1z"/>
<path d="M182 1121 c-4 -9 -6 -25 -6 -36 1 -11 2 -28 3 -37 1 -15 10 -18 51
-18 28 0 51 3 51 8 5 27 4 92 0 93 -3 1 -25 2 -49 4 -31 1 -45 -3 -50 -14z"/>
<path d="M1683 1133 c-8 -3 -13 -23 -13 -54 l0 -49 55 0 55 0 0 50 c0 28 -3
50 -7 51 -35 4 -80 5 -90 2z"/>
<path d="M585 1030 c-69 -15 -108 -56 -83 -88 32 -42 75 -64 124 -64 35 0 101
30 126 59 17 18 17 20 -2 41 -41 44 -107 65 -165 52z"/>
<path d="M1245 1026 c-16 -8 -43 -25 -59 -38 l-29 -24 28 -28 c73 -73 201 -70
249 7 8 12 5 22 -14 43 -48 50 -118 67 -175 40z"/>
<path d="M910 1008 c-42 -45 -10 -118 51 -118 35 0 69 35 69 71 0 60 -79 91
-120 47z"/>
<path d="M179 876 c0 -9 -1 -33 -1 -53 l-1 -38 44 -1 c57 -1 66 7 64 58 l-1
43 -52 3 c-41 2 -52 0 -53 -12z"/>
<path d="M1670 841 c0 -54 5 -58 65 -57 l40 1 2 53 1 52 -54 0 -54 0 0 -49z"/>
<path d="M727 806 c-67 -24 -104 -72 -109 -139 -3 -44 1 -48 46 -51 83 -7 154
66 159 161 2 36 0 38 -28 40 -16 2 -47 -4 -68 -11z"/>
<path d="M1119 806 c-1 -9 -2 -22 -3 -28 -4 -25 34 -113 56 -131 54 -42 123
-54 140 -23 15 27 0 104 -25 133 -29 33 -63 50 -120 58 -39 6 -47 5 -48 -9z"/>
<path d="M300 736 l0 -52 55 -1 55 0 0 51 0 52 -55 1 -55 0 0 -51z"/>
<path d="M1550 780 c-5 -3 -9 -26 -7 -51 l2 -44 53 -2 52 -1 0 52 0 53 -45 -1
c-25 0 -49 -3 -55 -6z"/>
<path d="M932 717 c-28 -29 -52 -89 -52 -127 0 -43 30 -107 57 -121 20 -11 26
-9 49 12 70 65 68 152 -5 237 -24 27 -23 27 -49 -1z"/>
<path d="M410 607 l0 -53 53 0 52 1 0 50 0 50 -52 2 -53 3 0 -53z"/>
<path d="M1403 643 c-6 -14 -7 -49 -4 -82 1 -4 25 -8 53 -7 l53 1 0 50 0 50
-48 3 c-37 2 -49 -1 -54 -15z"/>
<path d="M541 530 c-4 -3 -8 -26 -8 -52 l-2 -48 55 0 54 0 0 53 0 52 -46 0
c-25 0 -49 -2 -53 -5z"/>
<path d="M1270 483 l0 -53 54 0 53 0 -1 50 c0 28 -3 51 -6 51 -3 1 -26 2 -52
3 l-48 2 0 -53z"/>
<path d="M652 358 l3 -53 40 0 c59 -1 62 2 62 55 l1 50 -55 0 -54 0 3 -52z"/>
<path d="M1163 361 c-1 -54 2 -57 62 -56 l40 0 3 53 3 52 -54 0 -54 0 0 -49z"/>
<path d="M823 282 l-43 -3 0 -50 c0 -52 -2 -51 65 -51 14 0 30 0 35 1 15 1 13
98 -2 102 -7 2 -32 3 -55 1z"/>
<path d="M1047 282 c-13 -3 -17 -14 -17 -52 0 -53 8 -59 77 -52 30 4 31 6 31
52 l1 48 -37 4 c-21 2 -45 2 -55 0z"/>
</g>
</svg>
