<?xml version="1.0" standalone="no"?>
<!DOCTYPE svg PUBLIC "-//W3C//DTD SVG 20010904//EN"
 "http://www.w3.org/TR/2001/REC-SVG-20010904/DTD/svg10.dtd">
<svg version="1.0" xmlns="http://www.w3.org/2000/svg"
 width="540.000000pt" height="540.000000pt" viewBox="0 0 540.000000 540.000000"
 preserveAspectRatio="xMidYMid meet">
<metadata>
Created by potrace 1.14, written by Peter Selinger 2001-2017
</metadata>
<g transform="translate(0.000000,540.000000) scale(0.100000,-0.100000)"
fill="#E6037E" stroke="none">
<path d="M2200 4755 l0 -145 150 0 150 0 0 145 0 145 -150 0 -150 0 0 -145z"/>
<path d="M2900 4755 l0 -145 150 0 150 0 0 145 0 145 -150 0 -150 0 0 -145z"/>
<path d="M3350 4465 l0 -145 150 0 150 0 0 145 0 145 -150 0 -150 0 0 -145z"/>
<path d="M1830 4445 l0 -145 150 0 150 0 0 145 0 145 -150 0 -150 0 0 -145z"/>
<path d="M1500 4075 l0 -145 150 0 150 0 0 145 0 145 -150 0 -150 0 0 -145z"/>
<path d="M3700 4075 l0 -145 150 0 150 0 0 145 0 145 -150 0 -150 0 0 -145z"/>
<path d="M2690 4053 c-150 -103 -229 -272 -197 -418 5 -22 10 -47 12 -55 2 -8
4 -16 5 -17 2 -2 3 -6 4 -10 11 -47 90 -169 160 -247 l26 -29 28 24 c86 76
181 211 174 247 -2 6 1 12 6 12 10 0 9 -4 18 111 12 165 -50 312 -161 380 -37
23 -44 23 -75 2z"/>
<path d="M1200 3695 l0 -145 150 0 150 0 0 145 0 145 -150 0 -150 0 0 -145z"/>
<path d="M4000 3695 l0 -145 150 0 150 0 0 145 0 145 -150 0 -150 0 0 -145z"/>
<path d="M1770 3748 c-32 -16 -34 -24 -34 -138 0 -97 7 -149 21 -159 4 -3 9
-12 11 -18 1 -7 3 -18 5 -25 8 -40 112 -138 182 -172 33 -16 60 -28 60 -27 0
1 12 -2 28 -8 36 -14 70 -21 137 -28 30 -3 58 -11 62 -17 6 -8 8 -7 8 2 0 6 5
12 11 12 5 0 7 -5 4 -11 -4 -6 1 -5 13 2 12 8 20 24 21 43 1 17 2 40 2 51 1
11 -1 32 -4 47 -3 15 -1 31 5 34 7 4 7 9 0 13 -6 3 -13 22 -15 41 -3 19 -6 36
-7 38 -2 1 -3 5 -4 10 -4 23 -71 145 -83 149 -7 3 -13 14 -13 24 0 10 -4 18
-9 17 -5 -2 -25 12 -45 30 -20 18 -65 47 -98 65 -52 26 -74 31 -147 34 -55 2
-95 -1 -111 -9z"/>
<path d="M3607 3724 c-3 -4 -34 -8 -69 -11 -96 -6 -98 -7 -98 -16 0 -4 -4 -6
-9 -3 -22 14 -140 -72 -191 -139 -13 -17 -52 -91 -55 -105 -1 -3 -7 -17 -13
-32 -6 -14 -13 -44 -16 -65 -3 -21 -9 -60 -13 -88 -14 -86 -11 -110 17 -112
50 -3 126 -3 145 0 95 15 115 20 115 28 0 5 7 6 15 3 8 -4 15 -1 15 5 0 6 3
10 8 9 13 -3 62 25 62 35 0 6 3 7 6 4 7 -6 92 64 86 70 -1 2 8 14 21 26 14 12
37 45 51 74 72 138 67 300 -9 305 -47 2 -50 3 -56 11 -3 4 -8 4 -12 1z"/>
<path d="M850 3355 l0 -145 150 0 150 0 0 145 0 145 -150 0 -150 0 0 -145z"/>
<path d="M4340 3355 l0 -145 150 0 150 0 0 145 0 145 -150 0 -150 0 0 -145z"/>
<path d="M500 3045 l0 -145 150 0 150 0 0 145 0 145 -150 0 -150 0 0 -145z"/>
<path d="M4700 3045 l0 -145 150 0 150 0 0 145 0 145 -150 0 -150 0 0 -145z"/>
<path d="M3566 2906 c-76 -24 -145 -62 -223 -123 -91 -72 -92 -72 -28 -136 59
-61 136 -117 158 -117 8 0 20 -7 27 -15 7 -8 16 -12 22 -9 5 3 15 0 23 -6 8
-7 15 -9 15 -5 0 4 6 3 13 -2 6 -5 27 -9 45 -9 17 1 32 -2 32 -6 0 -4 10 -4
23 -2 12 3 36 5 53 5 41 -2 158 35 205 64 46 30 95 81 110 116 9 23 7 33 -14
65 -53 84 -178 174 -263 190 -69 13 -138 9 -198 -10z"/>
<path d="M1601 2889 c-104 -33 -184 -94 -211 -160 -11 -26 -10 -33 15 -69 36
-51 100 -110 156 -143 49 -29 150 -56 189 -51 14 2 43 5 65 7 22 2 49 8 60 14
11 6 22 11 25 11 16 0 90 36 90 43 0 5 6 9 13 9 12 0 119 81 156 117 15 16 3
32 -74 106 -126 121 -323 168 -484 116z"/>
<path d="M2621 2883 c-138 -58 -160 -235 -43 -341 74 -66 217 -48 278 35 75
103 49 229 -61 298 -38 23 -128 28 -174 8z"/>
<path d="M500 2355 l0 -145 150 0 150 0 0 145 0 145 -150 0 -150 0 0 -145z"/>
<path d="M4700 2355 l0 -145 150 0 150 0 0 145 0 145 -150 0 -150 0 0 -145z"/>
<path d="M3153 2313 c4 -6 3 -14 -2 -18 -6 -3 -8 -12 -4 -20 3 -8 1 -15 -4
-15 -9 0 -9 -57 1 -130 10 -70 12 -79 19 -86 4 -4 7 -16 7 -27 0 -10 9 -32 21
-48 11 -16 17 -29 12 -29 -4 0 -3 -4 2 -8 21 -14 54 -69 47 -77 -4 -5 -1 -5 6
-1 7 4 15 1 18 -8 3 -9 13 -16 21 -16 8 0 11 -4 8 -10 -3 -5 0 -10 9 -10 8 0
16 -4 18 -9 5 -13 106 -71 124 -71 8 0 12 -4 9 -10 -10 -16 204 -13 218 3 18
19 20 33 22 132 2 120 -22 197 -84 273 -37 46 -123 107 -164 117 -15 4 -27 12
-27 18 0 6 -2 8 -6 5 -3 -3 -24 0 -48 7 -23 7 -74 16 -112 20 -38 4 -72 13
-76 19 -5 7 -8 7 -8 -3 0 -11 -3 -11 -17 0 -10 8 -14 9 -10 2z"/>
<path d="M2196 2302 c-4 -3 -23 -7 -44 -7 -47 -3 -65 -7 -74 -20 -5 -6 -8 -5
-8 2 0 17 -138 -54 -173 -89 -16 -16 -33 -26 -38 -22 -5 3 -8 1 -7 -4 2 -5 -9
-23 -24 -40 -15 -17 -40 -55 -55 -84 -25 -47 -28 -66 -31 -160 -4 -109 8 -162
30 -140 7 7 17 8 28 2 26 -14 178 -4 228 14 23 8 45 15 47 15 13 1 116 83 125
100 5 11 16 26 24 33 16 16 56 100 61 129 2 11 6 23 9 27 3 5 8 23 11 40 3 18
7 46 10 63 3 17 6 48 7 68 0 20 5 41 10 48 9 11 -24 22 -62 21 -8 0 -27 2 -42
5 -14 3 -29 3 -32 -1z"/>
<path d="M2335 2260 c-3 -5 -1 -10 4 -10 6 0 11 5 11 10 0 6 -2 10 -4 10 -3 0
-8 -4 -11 -10z"/>
<path d="M850 2065 l0 -145 150 0 150 0 0 145 0 145 -150 0 -150 0 0 -145z"/>
<path d="M4340 2065 l0 -145 150 0 150 0 0 145 0 145 -150 0 -150 0 0 -145z"/>
<path d="M2643 2031 c-91 -88 -136 -167 -156 -276 -33 -178 28 -356 152 -439
l44 -29 34 18 c19 11 58 45 88 77 152 164 156 344 13 558 -33 49 -111 140
-121 140 -2 0 -26 -22 -54 -49z"/>
<path d="M1150 1705 l0 -145 150 0 150 0 0 145 0 145 -150 0 -150 0 0 -145z"/>
<path d="M3930 1705 l0 -145 150 0 150 0 0 145 0 145 -150 0 -150 0 0 -145z"/>
<path d="M1500 1355 l0 -145 150 0 150 0 0 145 0 145 -150 0 -150 0 0 -145z"/>
<path d="M3570 1355 l0 -145 150 0 150 0 0 145 0 145 -150 0 -150 0 0 -145z"/>
<path d="M1830 1005 l0 -145 150 0 150 0 0 145 0 145 -150 0 -150 0 0 -145z"/>
<path d="M3270 1005 l0 -145 150 0 150 0 0 145 0 145 -150 0 -150 0 0 -145z"/>
<path d="M2200 645 l0 -145 150 0 150 0 0 145 0 145 -150 0 -150 0 0 -145z"/>
<path d="M2900 645 l0 -145 150 0 150 0 0 145 0 145 -150 0 -150 0 0 -145z"/>
</g>
</svg>
