<svg id="Capa_1" data-name="Capa 1" xmlns="http://www.w3.org/2000/svg" viewBox="0 0 217 34"><defs>
<style>.cls-1{fill:#e6037e;}</style></defs><title>el-changarrito-restaurante-mexicano-barcelona</title><path class="cls-1" d="M17,20.53a3.09,3.09,0,0,0-.39-.31l0,0,0,0a3.73,3.73,0,0,0-1.34,3.13,2.18,2.18,0,0,0,1.32,1.72h.05a2.09,2.09,0,0,0,.43-.24A2.29,2.29,0,0,0,18,23,3.14,3.14,0,0,0,17,20.53Z"/><path class="cls-1" d="M17,15.56a2,2,0,0,0-.5-.17h0l0,0a2.73,2.73,0,0,1-.48.54,2.09,2.09,0,0,0-.66.91l0,0,0,0a3.38,3.38,0,0,1,.55.64,2.36,2.36,0,0,0,1.08,1,2.13,2.13,0,0,0,.3.09h0a1.36,1.36,0,0,0,1-1.2A2.14,2.14,0,0,0,17,15.56Z"/>
<path class="cls-1" d="M14.27,19.22h-.09c-1.83.19-3.73.74-3.88,3.32v.05h0a4.56,4.56,0,0,0,1.05.13,2.48,2.48,0,0,0,1.45-.41c.74-.5,1.17-1.44,1.4-3Z"/><path class="cls-1" d="M22.57,22.85h.31v-.06a3.1,3.1,0,0,0-.55-2.46c-.58-.67-1.56-1-3.16-1.06h-.09l0,.08C19.49,21.08,20.19,22.85,22.57,22.85Z"/><path class="cls-1" d="M22.91,10.92v-.05h-.06a3.07,3.07,0,0,0-2.49.38c-.71.53-1.1,1.48-1.28,3.08v.08h.08C21,14.13,22.86,13.51,22.91,10.92Z"/><path class="cls-1" d="M10.4,11.19h-.06v.06a3.06,3.06,0,0,0,.85,2.37,3.41,3.41,0,0,0,2.4.71c.27,0,.56,0,.87,0h.08l0-.08C13.9,12.47,12.94,10.75,10.4,11.19Z"/>
<path class="cls-1" d="M9.48,17.57l0,0A2.71,2.71,0,0,0,11,18a2.87,2.87,0,0,0,2.26-1.18l0,0,0,0a3.35,3.35,0,0,0-3.1-.83c-.37.17-.77.59-.63,1.61Z"/>
<path class="cls-1" d="M23.87,16.14l0,0a2.72,2.72,0,0,0-3.71.71l0,0,0,0a3.78,3.78,0,0,0,2.42,1,1.65,1.65,0,0,0,.68-.13c.37-.17.77-.58.64-1.61Z"/><path class="cls-1" d="M16.57,13.39l0,0,0,0A2.89,2.89,0,0,0,17,13a3.6,3.6,0,0,0,.92-2.71A2.16,2.16,0,0,0,17,8.8a2.83,2.83,0,0,0-.47-.27h0l0,0a2.32,2.32,0,0,0-1.37,2.07A3.16,3.16,0,0,0,16.57,13.39Z"/><rect class="cls-1" x="0.42" y="18.51" width="1.59" height="1.59"/><rect class="cls-1" x="2.88" y="21.32" width="1.59" height="1.59"/><rect class="cls-1" x="5.34" y="23.78" width="1.59" height="1.59"/><rect class="cls-1" x="8.15" y="26.42" width="1.59" height="1.59"/><rect class="cls-1" x="10.61" y="28.88" width="1.59" height="1.59"/><rect class="cls-1" x="13.42" y="31.51" width="1.59" height="1.59"/><rect class="cls-1" x="19.75" y="0.76" width="1.59" height="1.59" transform="translate(17.29 21.9) rotate(-85.23)"/><rect class="cls-1" x="21.97" y="3.76" width="1.59" height="1.59" transform="translate(16.33 26.86) rotate(-85.22)"/><rect class="cls-1" x="24.21" y="6.41" width="1.59" height="1.59" transform="translate(15.74 31.53) rotate(-85.21)"/><rect class="cls-1" x="26.8" y="9.27" width="1.59" height="1.59" transform="translate(15.26 36.72) rotate(-85.22)"/><rect class="cls-1" x="29.04" y="11.93" width="1.59" height="1.59" transform="translate(14.68 41.4) rotate(-85.23)"/><rect class="cls-1" x="31.62" y="14.79" width="1.59" height="1.59" transform="translate(14.22 46.61) rotate(-85.27)"/><rect class="cls-1" x="12.61" y="1.13" width="1.31" height="1.31"/><rect class="cls-1" x="10.15" y="3.59" width="1.31" height="1.31"/><rect class="cls-1" x="7.87" y="6.23" width="1.31" height="1.31"/><rect class="cls-1" x="5.58" y="8.69" width="1.31" height="1.31"/><rect class="cls-1" x="3.3" y="11.15" width="1.31" height="1.31"/><rect class="cls-1" x="1.19" y="13.96" width="1.31" height="1.31"/><rect class="cls-1" x="31.1" y="19.04" width="1.31" height="1.31"/><rect class="cls-1" x="28.64" y="21.49" width="1.31" height="1.31"/><rect class="cls-1" x="26.35" y="24.13" width="1.31" height="1.31"/><rect class="cls-1" x="24.07" y="26.59" width="1.31" height="1.31"/><rect class="cls-1" x="21.79" y="29.05" width="1.31" height="1.31"/><rect class="cls-1" x="19.68" y="31.86" width="1.31" height="1.31"/><path class="cls-1" d="M63.16,20.67a2.51,2.51,0,0,0-.39-.31l0,0,0,0a3.71,3.71,0,0,0-1.34,3.12,2.18,2.18,0,0,0,1.32,1.72l0,0,0,0a2.45,2.45,0,0,0,1.44-2A3.15,3.15,0,0,0,63.16,20.67Z"/><path class="cls-1" d="M63.15,15.7a2.28,2.28,0,0,0-.5-.17h0l0,0a2.73,2.73,0,0,1-.48.54,2.24,2.24,0,0,0-.66.91v0l0,0a3.05,3.05,0,0,1,.55.64,2.39,2.39,0,0,0,1.09,1,1.1,1.1,0,0,0,.29.09h0a1.38,1.38,0,0,0,1-1.2A2.15,2.15,0,0,0,63.15,15.7Z"/><path class="cls-1" d="M60.46,19.36h-.08c-1.84.19-3.74.74-3.89,3.32v0h0a4.7,4.7,0,0,0,1.06.13,2.53,2.53,0,0,0,1.45-.41c.73-.5,1.16-1.44,1.4-3Z"/><path class="cls-1" d="M68.77,23h.31v-.06a3.11,3.11,0,0,0-.55-2.46c-.58-.67-1.55-1-3.16-1.06h-.08l0,.08C65.68,21.22,66.39,23,68.77,23Z"/><path class="cls-1" d="M69.1,11.06V11h0a3.1,3.1,0,0,0-2.49.38c-.72.53-1.11,1.48-1.28,3.08v.08h.08C67.18,14.27,69.05,13.65,69.1,11.06Z"/><path class="cls-1" d="M56.59,11.34h-.05v.06a3.08,3.08,0,0,0,.84,2.37,3.42,3.42,0,0,0,2.41.71c.26,0,.55,0,.86,0h.08l0-.08C60.1,12.61,59.14,10.89,56.59,11.34Z"/><path class="cls-1" d="M55.68,17.71l0,0a2.71,2.71,0,0,0,1.45.43A2.86,2.86,0,0,0,59.41,17l0,0,0,0a3.37,3.37,0,0,0-3.11-.83c-.36.17-.77.59-.63,1.61Z"/><path class="cls-1" d="M70.06,16.28l0,0a2.75,2.75,0,0,0-3.72.71l0,0,0,0a3.78,3.78,0,0,0,2.43,1,1.57,1.57,0,0,0,.67-.13c.37-.17.78-.58.64-1.6Z"/><path class="cls-1" d="M62.77,13.53l0,0,0,0c.13-.12.24-.25.33-.34a3.62,3.62,0,0,0,.91-2.72,2.12,2.12,0,0,0-.92-1.52,3.27,3.27,0,0,0-.48-.26l0,0,0,0a2.32,2.32,0,0,0-1.37,2.07A3.17,3.17,0,0,0,62.77,13.53Z"/><rect class="cls-1" x="46.62" y="18.66" width="1.59" height="1.59"/><rect class="cls-1" x="49.08" y="21.47" width="1.59" height="1.59"/><rect class="cls-1" x="51.54" y="23.92" width="1.59" height="1.59"/><rect class="cls-1" x="54.35" y="26.56" width="1.59" height="1.59"/><rect class="cls-1" x="56.81" y="29.02" width="1.59" height="1.59"/><rect class="cls-1" x="59.62" y="31.65" width="1.59" height="1.59"/><rect class="cls-1" x="65.95" y="0.9" width="1.59" height="1.59" transform="translate(59.5 68.06) rotate(-85.23)"/><rect class="cls-1" x="68.16" y="3.9" width="1.59" height="1.59" transform="translate(58.54 73.02) rotate(-85.22)"/><rect class="cls-1" x="70.41" y="6.56" width="1.59" height="1.59" transform="matrix(0.08, -1, 1, 0.08, 57.94, 77.69)"/><rect class="cls-1" x="72.99" y="9.41" width="1.59" height="1.59" transform="translate(57.46 82.89) rotate(-85.22)"/><rect class="cls-1" x="75.24" y="12.07" width="1.59" height="1.59" transform="translate(56.88 87.56) rotate(-85.22)"/><rect class="cls-1" x="77.82" y="14.93" width="1.59" height="1.59" transform="matrix(0.08, -1, 1, 0.08, 56.45, 92.77)"/><rect class="cls-1" x="58.8" y="1.28" width="1.31" height="1.31"/><rect class="cls-1" x="56.34" y="3.73" width="1.31" height="1.31"/><rect class="cls-1" x="54.06" y="6.37" width="1.31" height="1.31"/><rect class="cls-1" x="51.78" y="8.83" width="1.31" height="1.31"/><rect class="cls-1" x="49.5" y="11.29" width="1.31" height="1.31"/><rect class="cls-1" x="47.39" y="14.1" width="1.31" height="1.31"/><rect class="cls-1" x="77.29" y="19.18" width="1.31" height="1.31"/><rect class="cls-1" x="74.83" y="21.64" width="1.31" height="1.31"/><rect class="cls-1" x="72.55" y="24.27" width="1.31" height="1.31"/><rect class="cls-1" x="70.26" y="26.73" width="1.31" height="1.31"/><rect class="cls-1" x="67.98" y="29.19" width="1.31" height="1.31"/><rect class="cls-1" x="65.87" y="32" width="1.31" height="1.31"/><path class="cls-1" d="M109.34,20.67a2.55,2.55,0,0,0-.4-.31l0,0,0,0a3.71,3.71,0,0,0-1.34,3.12,2.14,2.14,0,0,0,1.32,1.72l0,0,0,0a1.89,1.89,0,0,0,.43-.24,2.28,2.28,0,0,0,1-1.79A3.18,3.18,0,0,0,109.34,20.67Z"/><path class="cls-1" d="M109.32,15.7a2.11,2.11,0,0,0-.5-.17h0l0,0a3.56,3.56,0,0,1-.48.54,2.15,2.15,0,0,0-.66.91l0,0,0,0a3.43,3.43,0,0,1,.56.64,2.36,2.36,0,0,0,1.08,1,1.18,1.18,0,0,0,.3.09h0a1.37,1.37,0,0,0,1-1.2A2.14,2.14,0,0,0,109.32,15.7Z"/><path class="cls-1" d="M106.63,19.36h-.08c-1.83.19-3.73.74-3.88,3.32v0h0a4.56,4.56,0,0,0,1,.13,2.48,2.48,0,0,0,1.45-.41c.73-.5,1.16-1.44,1.4-3Z"/><path class="cls-1" d="M114.94,23h.31v-.06a3.11,3.11,0,0,0-.55-2.46c-.58-.67-1.56-1-3.17-1.06h-.08l0,.08C111.85,21.22,112.56,23,114.94,23Z"/><path class="cls-1" d="M115.27,11.06V11h0a3.1,3.1,0,0,0-2.49.38c-.71.53-1.11,1.48-1.28,3.08v.08h.08C113.35,14.27,115.22,13.65,115.27,11.06Z"/><path class="cls-1" d="M102.76,11.34h-.05v.06a3,3,0,0,0,.85,2.37,3.39,3.39,0,0,0,2.4.71c.27,0,.56,0,.87,0h.08l0-.08C106.27,12.61,105.31,10.89,102.76,11.34Z"/><path class="cls-1" d="M101.85,17.71l0,0a2.69,2.69,0,0,0,1.45.43A2.87,2.87,0,0,0,105.59,17l0,0,0,0a3.37,3.37,0,0,0-3.11-.83c-.36.17-.76.59-.62,1.61Z"/><path class="cls-1" d="M116.23,16.28l0,0a2.75,2.75,0,0,0-3.72.71l0,0,0,0a3.73,3.73,0,0,0,2.42,1,1.65,1.65,0,0,0,.68-.13c.36-.17.77-.58.64-1.6Z"/><path class="cls-1" d="M108.94,13.53l0,0,0,0,.32-.34a3.67,3.67,0,0,0,.92-2.72,2.16,2.16,0,0,0-.93-1.52,2.75,2.75,0,0,0-.47-.26l0,0,0,0a2.3,2.3,0,0,0-1.37,2.07A3.14,3.14,0,0,0,108.94,13.53Z"/><rect class="cls-1" x="92.79" y="18.66" width="1.59" height="1.59"/><rect class="cls-1" x="95.25" y="21.47" width="1.59" height="1.59"/><rect class="cls-1" x="97.71" y="23.92" width="1.59" height="1.59"/><rect class="cls-1" x="100.52" y="26.56" width="1.59" height="1.59"/><rect class="cls-1" x="102.98" y="29.02" width="1.59" height="1.59"/><rect class="cls-1" x="105.79" y="31.65" width="1.59" height="1.59"/><rect class="cls-1" x="112.12" y="0.9" width="1.59" height="1.59" transform="translate(101.84 114.07) rotate(-85.23)"/><rect class="cls-1" x="114.34" y="3.9" width="1.59" height="1.59" transform="translate(100.87 119.04) rotate(-85.22)"/><rect class="cls-1" x="116.58" y="6.56" width="1.59" height="1.59" transform="translate(100.26 123.71) rotate(-85.21)"/><rect class="cls-1" x="119.16" y="9.41" width="1.59" height="1.59" transform="translate(99.79 128.9) rotate(-85.22)"/><rect class="cls-1" x="121.41" y="12.07" width="1.59" height="1.59" transform="translate(99.21 133.57) rotate(-85.22)"/><rect class="cls-1" x="123.99" y="14.93" width="1.59" height="1.59" transform="matrix(0.08, -1, 1, 0.08, 98.81, 138.79)"/><rect class="cls-1" x="104.98" y="1.28" width="1.31" height="1.31"/><rect class="cls-1" x="102.52" y="3.73" width="1.31" height="1.31"/><rect class="cls-1" x="100.24" y="6.37" width="1.31" height="1.31"/><rect class="cls-1" x="97.95" y="8.83" width="1.31" height="1.31"/><rect class="cls-1" x="95.67" y="11.29" width="1.31" height="1.31"/><rect class="cls-1" x="93.56" y="14.1" width="1.31" height="1.31"/><rect class="cls-1" x="123.46" y="19.18" width="1.31" height="1.31"/><rect class="cls-1" x="121" y="21.64" width="1.31" height="1.31"/><rect class="cls-1" x="118.72" y="24.27" width="1.31" height="1.31"/><rect class="cls-1" x="116.44" y="26.73" width="1.31" height="1.31"/><rect class="cls-1" x="114.15" y="29.19" width="1.31" height="1.31"/><rect class="cls-1" x="112.05" y="32" width="1.31" height="1.31"/><path class="cls-1" d="M154.07,20.53a3.09,3.09,0,0,0-.39-.31l0,0,0,0a3.73,3.73,0,0,0-1.34,3.13,2.19,2.19,0,0,0,1.32,1.72h.06a2.44,2.44,0,0,0,1.44-2A3.18,3.18,0,0,0,154.07,20.53Z"/><path class="cls-1" d="M154.06,15.56a2.28,2.28,0,0,0-.5-.17h-.05l0,0A2.73,2.73,0,0,1,153,16a2.17,2.17,0,0,0-.66.91v0l0,0a3.05,3.05,0,0,1,.55.64,2.39,2.39,0,0,0,1.09,1,1.66,1.66,0,0,0,.29.09h0a1.38,1.38,0,0,0,1-1.2A2.15,2.15,0,0,0,154.06,15.56Z"/><path class="cls-1" d="M151.37,19.22h-.08c-1.84.19-3.74.74-3.89,3.32v.05h0a4.7,4.7,0,0,0,1.06.13,2.53,2.53,0,0,0,1.45-.41c.73-.5,1.16-1.44,1.4-3Z"/><path class="cls-1" d="M159.68,22.85h.3v-.06a3.1,3.1,0,0,0-.55-2.46c-.58-.67-1.55-1-3.16-1.06h-.08v.08C156.59,21.08,157.3,22.85,159.68,22.85Z"/><path class="cls-1" d="M160,10.92v-.05h0a3.09,3.09,0,0,0-2.5.38c-.71.53-1.1,1.48-1.28,3.08v.08h.08C158.08,14.13,160,13.51,160,10.92Z"/><path class="cls-1" d="M147.5,11.19h-.06v.06a3.06,3.06,0,0,0,.84,2.37,3.42,3.42,0,0,0,2.41.71c.26,0,.55,0,.86,0h.08l0-.08C151,12.47,150,10.75,147.5,11.19Z"/><path class="cls-1" d="M146.59,17.57l0,0a2.71,2.71,0,0,0,1.45.43,2.86,2.86,0,0,0,2.26-1.18l0,0,0,0a3.37,3.37,0,0,0-3.11-.83c-.36.17-.77.59-.63,1.61Z"/><path class="cls-1" d="M161,16.14l0,0a2.72,2.72,0,0,0-3.71.71l0,0,0,0a3.84,3.84,0,0,0,2.43,1,1.6,1.6,0,0,0,.67-.13c.37-.17.78-.58.64-1.61Z"/><path class="cls-1" d="M153.68,13.39l0,0,0,0a4,4,0,0,0,.33-.35,3.59,3.59,0,0,0,.91-2.71,2.1,2.1,0,0,0-.93-1.52,2.83,2.83,0,0,0-.47-.27h0l0,0a2.32,2.32,0,0,0-1.37,2.07A3.17,3.17,0,0,0,153.68,13.39Z"/><rect class="cls-1" x="137.53" y="18.51" width="1.59" height="1.59"/><rect class="cls-1" x="139.99" y="21.32" width="1.59" height="1.59"/><rect class="cls-1" x="142.45" y="23.78" width="1.59" height="1.59"/><rect class="cls-1" x="145.26" y="26.42" width="1.59" height="1.59"/><rect class="cls-1" x="147.72" y="28.88" width="1.59" height="1.59"/><rect class="cls-1" x="150.52" y="31.51" width="1.59" height="1.59"/><rect class="cls-1" x="156.85" y="0.76" width="1.59" height="1.59" transform="translate(143 158.52) rotate(-85.23)"/><rect class="cls-1" x="159.07" y="3.76" width="1.59" height="1.59" transform="translate(142.02 163.49) rotate(-85.22)"/><rect class="cls-1" x="161.32" y="6.41" width="1.59" height="1.59" transform="translate(141.4 168.16) rotate(-85.21)"/><rect class="cls-1" x="163.9" y="9.27" width="1.59" height="1.59" transform="translate(140.94 173.35) rotate(-85.22)"/><rect class="cls-1" x="166.15" y="11.93" width="1.59" height="1.59" transform="translate(140.38 178.03) rotate(-85.23)"/><rect class="cls-1" x="168.73" y="14.79" width="1.59" height="1.59" transform="translate(140.02 183.24) rotate(-85.27)"/><rect class="cls-1" x="149.71" y="1.13" width="1.31" height="1.31"/><rect class="cls-1" x="147.25" y="3.59" width="1.31" height="1.31"/><rect class="cls-1" x="144.97" y="6.23" width="1.31" height="1.31"/><rect class="cls-1" x="142.69" y="8.69" width="1.31" height="1.31"/><rect class="cls-1" x="140.4" y="11.15" width="1.31" height="1.31"/><rect class="cls-1" x="138.3" y="13.96" width="1.31" height="1.31"/><rect class="cls-1" x="168.2" y="19.04" width="1.31" height="1.31"/><rect class="cls-1" x="165.74" y="21.49" width="1.31" height="1.31"/><rect class="cls-1" x="163.46" y="24.13" width="1.31" height="1.31"/><rect class="cls-1" x="161.17" y="26.59" width="1.31" height="1.31"/><rect class="cls-1" x="158.89" y="29.05" width="1.31" height="1.31"/><rect class="cls-1" x="156.78" y="31.86" width="1.31" height="1.31"/><path class="cls-1" d="M200.26,20.67a2.51,2.51,0,0,0-.39-.31l0,0,0,0a3.75,3.75,0,0,0-1.35,3.12,2.17,2.17,0,0,0,1.33,1.72l0,0,0,0a2.38,2.38,0,0,0,.43-.24,2.28,2.28,0,0,0,1-1.79A3.15,3.15,0,0,0,200.26,20.67Z"/><path class="cls-1" d="M200.25,15.7a2.11,2.11,0,0,0-.5-.17h0l0,0a2.73,2.73,0,0,1-.48.54,2.33,2.33,0,0,0-.66.91v0l0,0a3.43,3.43,0,0,1,.56.64,2.31,2.31,0,0,0,1.08,1,1.23,1.23,0,0,0,.29.09h0a1.38,1.38,0,0,0,1-1.2A2.15,2.15,0,0,0,200.25,15.7Z"/><path class="cls-1" d="M197.56,19.36h-.08c-1.84.19-3.73.74-3.88,3.32v0h.06a4.56,4.56,0,0,0,1,.13,2.53,2.53,0,0,0,1.45-.41c.73-.5,1.16-1.44,1.4-3Z"/><path class="cls-1" d="M205.87,23h.31v-.06a3,3,0,0,0-.55-2.46c-.57-.67-1.55-1-3.16-1.06h-.08l0,.08C202.78,21.22,203.49,23,205.87,23Z"/><path class="cls-1" d="M206.2,11.06V11h0a3.1,3.1,0,0,0-2.49.38c-.71.53-1.11,1.48-1.28,3.08v.08h.08C204.28,14.27,206.15,13.65,206.2,11.06Z"/><path class="cls-1" d="M193.69,11.34h-.05v.06a3,3,0,0,0,.85,2.37,3.38,3.38,0,0,0,2.4.71c.27,0,.55,0,.86,0h.09l0-.08C197.2,12.61,196.24,10.89,193.69,11.34Z"/><path class="cls-1" d="M192.78,17.71l0,0a2.66,2.66,0,0,0,1.45.43A2.86,2.86,0,0,0,196.51,17l0,0,0,0a3.37,3.37,0,0,0-3.11-.83c-.36.17-.76.59-.62,1.61Z"/><path class="cls-1" d="M207.16,16.28l0,0a2.75,2.75,0,0,0-3.72.71l0,0,0,0a3.73,3.73,0,0,0,2.42,1,1.65,1.65,0,0,0,.68-.13c.36-.17.77-.58.64-1.6Z"/><path class="cls-1" d="M199.87,13.53l0,0,0,0,.32-.34a3.62,3.62,0,0,0,.91-2.72,2.12,2.12,0,0,0-.92-1.52,2.75,2.75,0,0,0-.47-.26l0,0,0,0a2.31,2.31,0,0,0-1.36,2.07A3.14,3.14,0,0,0,199.87,13.53Z"/><rect class="cls-1" x="183.72" y="18.66" width="1.59" height="1.59"/><rect class="cls-1" x="186.18" y="21.47" width="1.59" height="1.59"/><rect class="cls-1" x="188.64" y="23.92" width="1.59" height="1.59"/><rect class="cls-1" x="191.45" y="26.56" width="1.59" height="1.59"/><rect class="cls-1" x="193.91" y="29.02" width="1.59" height="1.59"/><rect class="cls-1" x="196.72" y="31.65" width="1.59" height="1.59"/><rect class="cls-1" x="203.05" y="0.9" width="1.59" height="1.59" transform="translate(185.21 204.69) rotate(-85.23)"/><rect class="cls-1" x="205.26" y="3.9" width="1.59" height="1.59" transform="translate(184.23 209.65) rotate(-85.22)"/><rect class="cls-1" x="207.51" y="6.56" width="1.59" height="1.59" transform="translate(183.6 214.32) rotate(-85.21)"/><rect class="cls-1" x="210.09" y="9.41" width="1.59" height="1.59" transform="translate(183.14 219.51) rotate(-85.22)"/><rect class="cls-1" x="212.34" y="12.07" width="1.59" height="1.59" transform="translate(182.56 224.19) rotate(-85.22)"/><rect class="cls-1" x="214.92" y="14.93" width="1.59" height="1.59" transform="translate(182.09 229.38) rotate(-85.22)"/><rect class="cls-1" x="195.91" y="1.28" width="1.31" height="1.31"/><rect class="cls-1" x="193.45" y="3.73" width="1.31" height="1.31"/><rect class="cls-1" x="191.16" y="6.37" width="1.31" height="1.31"/><rect class="cls-1" x="188.88" y="8.83" width="1.31" height="1.31"/><rect class="cls-1" x="186.6" y="11.29" width="1.31" height="1.31"/><rect class="cls-1" x="184.49" y="14.1" width="1.31" height="1.31"/><rect class="cls-1" x="214.39" y="19.18" width="1.31" height="1.31"/><rect class="cls-1" x="211.93" y="21.64" width="1.31" height="1.31"/><rect class="cls-1" x="209.65" y="24.27" width="1.31" height="1.31"/><rect class="cls-1" x="207.37" y="26.73" width="1.31" height="1.31"/><rect class="cls-1" x="205.08" y="29.19" width="1.31" height="1.31"/><rect class="cls-1" x="202.98" y="32" width="1.31" height="1.31"/></svg>