<?xml version="1.0" encoding="utf-8"?>
<!-- Generator: Adobe Illustrator 24.0.0, SVG Export Plug-In . SVG Version: 6.00 Build 0)  -->
<svg version="1.1" id="Layer_1" xmlns="http://www.w3.org/2000/svg" xmlns:xlink="http://www.w3.org/1999/xlink" x="0px" y="0px"
	 viewBox="0 0 17.5 18.36" style="enable-background:new 0 0 17.5 18.36;" xml:space="preserve">
<style type="text/css">
	.st0{fill:#FFFFFF;}
	.st1{fill:#888888;}
</style>
<g>
	<g id="Rectangle_4" transform="translate(0 3)">
		<g>
			<path class="st0" d="M2.25,4.18v8c0,0.55,0.45,1,1,1h11c0.55,0,1-0.45,1-1v-8H2.25z"/>
		</g>
	</g>
	<g id="Rectangle_5" transform="translate(0 2)">
		<g>
			<path class="st1" d="M15.25,1.18h-2v-0.5c0-0.83-0.67-1.5-1.5-1.5s-1.5,0.67-1.5,1.5v0.5h-3v-0.5c0-0.83-0.67-1.5-1.5-1.5
				s-1.5,0.67-1.5,1.5v0.5h-2c-0.55,0-1,0.45-1,1v11c0,1.1,0.9,2,2,2h11c1.1,0,2-0.9,2-2v-11C16.25,1.63,15.8,1.18,15.25,1.18z
				 M11,0.68c0-0.41,0.34-0.75,0.75-0.75s0.75,0.34,0.75,0.75v2c0,0.19-0.07,0.37-0.2,0.5c-0.13,0.15-0.33,0.25-0.55,0.25
				s-0.42-0.1-0.55-0.25C11.07,3.05,11,2.87,11,2.68V0.68z M5,0.68c0-0.41,0.34-0.75,0.75-0.75S6.5,0.27,6.5,0.68v2
				c0,0.19-0.07,0.37-0.2,0.5C6.17,3.33,5.97,3.43,5.75,3.43S5.33,3.33,5.2,3.18C5.07,3.05,5,2.87,5,2.68V0.68z M15.25,13.18
				c0,0.55-0.45,1-1,1h-11c-0.55,0-1-0.45-1-1v-8h13V13.18z"/>
		</g>
	</g>
	<g id="Rectangle_6" transform="translate(3)">
		<g>
			<path class="st0" d="M3.5,2.68v2c0,0.19-0.07,0.37-0.2,0.5C3.17,5.33,2.97,5.43,2.75,5.43S2.33,5.33,2.2,5.18
				C2.07,5.05,2,4.87,2,4.68v-2c0-0.41,0.34-0.75,0.75-0.75S3.5,2.27,3.5,2.68z"/>
		</g>
	</g>
	<g id="Rectangle_7" transform="translate(9)">
		<g>
			<path class="st0" d="M3.5,2.68v2c0,0.19-0.07,0.37-0.2,0.5C3.17,5.33,2.97,5.43,2.75,5.43S2.33,5.33,2.2,5.18
				C2.07,5.05,2,4.87,2,4.68v-2c0-0.41,0.34-0.75,0.75-0.75S3.5,2.27,3.5,2.68z"/>
		</g>
	</g>
</g>
</svg>
