<?xml version="1.0" encoding="UTF-8"?>
<svg xmlns="http://www.w3.org/2000/svg" xmlns:xlink="http://www.w3.org/1999/xlink" width="20px" height="20px" viewBox="0 0 20 20" version="1.1">
<g id="surface1">
<path style=" stroke:none;fill-rule:evenodd;fill:rgb(0%,0%,0%);fill-opacity:1;" d="M 1.660156 7.582031 C 1.875 7.132812 2.125 6.695312 2.398438 6.277344 L 2.398438 4.800781 C 2.398438 1.699219 5.457031 0 9.601562 0 C 13.851562 0 16.800781 1.632812 16.800781 4.800781 L 16.800781 6.277344 C 17.0625 6.675781 17.328125 7.132812 17.539062 7.582031 C 18.71875 7.996094 19.199219 9.355469 19.199219 10.839844 C 19.199219 12.378906 18.484375 14.632812 16.546875 14.992188 C 14.980469 17.785156 12.644531 19.199219 9.601562 19.199219 C 6.554688 19.199219 4.222656 17.785156 2.652344 14.992188 C 0.71875 14.632812 0 12.378906 0 10.839844 C 0 9.363281 0.480469 7.996094 1.660156 7.582031 Z M 17.550781 10.136719 C 17.214844 10.378906 16.722656 10.445312 16.171875 10.296875 C 14.941406 9.9375 13.355469 9.089844 9.601562 9.101562 C 5.84375 9.089844 4.257812 9.9375 3.027344 10.296875 C 2.476562 10.445312 1.984375 10.378906 1.648438 10.132812 C 1.457031 11.417969 1.917969 13.417969 3.171875 13.441406 C 3.46875 13.445312 3.734375 13.613281 3.871094 13.875 C 5.78125 17.601562 8.65625 17.601562 9.601562 17.601562 C 10.542969 17.601562 13.417969 17.601562 15.328125 13.875 C 15.464844 13.613281 15.730469 13.445312 16.027344 13.441406 C 17.507812 13.410156 17.601562 10.867188 17.601562 10.839844 C 17.601562 10.582031 17.585938 10.34375 17.550781 10.136719 Z M 12 13.601562 C 12 13.605469 11.386719 15.484375 9.601562 15.484375 C 7.878906 15.484375 7.203125 13.605469 7.199219 13.601562 Z M 7 9.601562 C 6.449219 9.601562 6 10.136719 6 10.800781 C 6 11.460938 6.449219 12 7 12 C 7.550781 12 8 11.460938 8 10.800781 C 8 10.136719 7.550781 9.601562 7 9.601562 Z M 13.199219 10.800781 C 13.199219 11.460938 12.753906 12 12.199219 12 C 11.648438 12 11.199219 11.460938 11.199219 10.800781 C 11.199219 10.136719 11.648438 9.601562 12.199219 9.601562 C 12.753906 9.601562 13.199219 10.136719 13.199219 10.800781 Z M 15.609375 7.398438 C 13.644531 6.476562 11.96875 6.089844 9.601562 6.089844 C 7.574219 6.089844 5.660156 6.496094 3.570312 7.429688 C 3.328125 7.816406 3.117188 8.226562 2.9375 8.648438 C 5.261719 7.84375 6.769531 7.496094 9.601562 7.507812 C 12.511719 7.496094 14.023438 7.871094 16.261719 8.648438 C 16.078125 8.214844 15.859375 7.796875 15.609375 7.398438 Z M 7.199219 4.800781 L 12 4.800781 L 12 2.265625 L 9.601562 3.863281 L 7.199219 2.265625 Z M 11.996094 1.601562 L 7.203125 1.601562 L 9.601562 3.199219 Z M 11.996094 1.601562 "/>
</g>
</svg>
