<?xml version="1.0" encoding="UTF-8"?>
<svg xmlns="http://www.w3.org/2000/svg" xmlns:xlink="http://www.w3.org/1999/xlink" width="23px" height="20px" viewBox="0 0 22 20" version="1.1">
<g id="surface1">
<path style=" stroke:none;fill-rule:nonzero;fill:rgb(0%,0%,0%);fill-opacity:1;" d="M 22 8.4375 L 22 9.0625 C 22 9.582031 21.589844 10 21.082031 10 L 20.777344 10 L 19.78125 17.140625 C 19.652344 18.0625 18.878906 18.75 17.964844 18.75 L 4.035156 18.75 C 3.121094 18.75 2.347656 18.0625 2.21875 17.140625 L 1.222656 10 L 0.917969 10 C 0.410156 10 0 9.582031 0 9.0625 L 0 8.4375 C 0 7.917969 0.410156 7.5 0.917969 7.5 L 3.488281 7.5 L 7.566406 1.765625 C 7.964844 1.207031 8.726562 1.082031 9.273438 1.488281 C 9.820312 1.894531 9.941406 2.675781 9.542969 3.234375 L 6.511719 7.5 L 15.488281 7.5 L 12.457031 3.234375 C 12.058594 2.675781 12.179688 1.894531 12.726562 1.488281 C 13.269531 1.082031 14.035156 1.207031 14.433594 1.765625 L 18.511719 7.5 L 21.082031 7.5 C 21.589844 7.5 22 7.917969 22 8.4375 Z M 11.917969 15.3125 L 11.917969 10.9375 C 11.917969 10.417969 11.507812 10 11 10 C 10.492188 10 10.082031 10.417969 10.082031 10.9375 L 10.082031 15.3125 C 10.082031 15.832031 10.492188 16.25 11 16.25 C 11.507812 16.25 11.917969 15.832031 11.917969 15.3125 Z M 16.195312 15.3125 L 16.195312 10.9375 C 16.195312 10.417969 15.785156 10 15.277344 10 C 14.773438 10 14.359375 10.417969 14.359375 10.9375 L 14.359375 15.3125 C 14.359375 15.832031 14.773438 16.25 15.277344 16.25 C 15.785156 16.25 16.195312 15.832031 16.195312 15.3125 Z M 7.640625 15.3125 L 7.640625 10.9375 C 7.640625 10.417969 7.226562 10 6.722656 10 C 6.214844 10 5.804688 10.417969 5.804688 10.9375 L 5.804688 15.3125 C 5.804688 15.832031 6.214844 16.25 6.722656 16.25 C 7.226562 16.25 7.640625 15.832031 7.640625 15.3125 Z M 7.640625 15.3125 "/>
</g>
</svg>
