<svg xmlns="http://www.w3.org/2000/svg" width="400" height="60" viewBox="0 0 400 60">
  <defs>
    <style>
      .cls-1 {
        fill: #fff0f8;
        fill-rule: evenodd;
      }
    </style>
  </defs>
  <path id="el_changarrito_1" data-name="el changarrito 1" class="cls-1" d="M332.269,4.025c2.877,0,5.141-.273,6.429.811a5.436,5.436,0,0,1,.8,5.679,5.411,5.411,0,0,1-2.411,1.623c-2.055-.012-3.267-0.008-4.822,0-3.437-1.865-3.184-4.137-2.411-6.491C330.965,4.271,331.227,4.268,332.269,4.025ZM38.12,4.837h7.233a1.82,1.82,0,0,1,1.607,1.623c-0.006,9.825.065,28.428,0,37.32A1.792,1.792,0,0,1,45.353,45.4H38.12a1.7,1.7,0,0,1-1.607-1.623c-0.013-9.126.016-28.658,0-36.509C36.51,5.717,37.276,4.856,38.12,4.837Zm72.332,12.17a2.731,2.731,0,0,0,.8,0c3.259-1.774,4.587-3.25,7.233-3.245,4.658,0.009.515,0.093,4.822,0,6.458,0.015,10.451,7.428,10.448,9.736,0.1,6.874-.012,12.249,0,20.283a1.8,1.8,0,0,1-1.608,1.623c-2.019-.013-4.213.029-6.429,0a1.7,1.7,0,0,1-1.607-1.623c0.037-8.324.03-11.833,0-17.849,0-1.574-2.419-4.841-4.019-4.868-2.981.058-1.467,0.058-4.018,0-1.678-.022-4.831,3.26-4.822,4.868,0.028,5.295-.125,13.211,0,17.849a1.664,1.664,0,0,1-1.608,1.623h-7.233a1.774,1.774,0,0,1-1.607-1.623c0.189-9.769-.049-27.927,0-37.32,2.37-1.291,4.6-1.683,8.84-1.623,0.8,0.075.86,0.776,0.8,1.623C110.487,9.743,110.505,12.56,110.452,17.006Zm253.981,28.45c-4.891,1.057-15.2,1.926-18.5-3.3-1.884-2.668-1.639-9.911-1.608-17.849,0.03-7.41-.043-14.866,0-18.66a0.872,0.872,0,0,1,.8-0.811c1.683-.023,4.43-0.034,7.233,0a1.783,1.783,0,0,1,1.608,1.623c0,3.6.041,7.667,0.027,9.7,3.547,0.016,5.74.028,8.82,0.034a0.7,0.7,0,0,1,.8.83c0.015,1.445-.02,2.736,0,4.849a0.818,0.818,0,0,1-.8.811c-3.972.2-4.654,0.014-8.84,0V36.478c-0.074,3.2,3.395,2.394,10.447,2.434a0.979,0.979,0,0,1,.8.811c0.04,1.662.022,2.991,0.013,4.881A0.842,0.842,0,0,1,364.433,45.457ZM32.494,33.233h-21.7A5.6,5.6,0,0,0,12.4,37.289a6.477,6.477,0,0,0,4.822,2.434c2.719-.076,5.223-0.13,8.037-3.245a1.477,1.477,0,0,1,.8-0.811c2.963-.047,3.617-0.016,5.626,0A1.525,1.525,0,0,1,33.3,37.289c0,0.876.03,0.736,0,1.623a6.615,6.615,0,0,1-1.607,3.245c-2.572,2.966-6.214,3.868-10.448,4.057-2.047.091-4.264,0.064-6.429,0A23.734,23.734,0,0,1,9.991,45.4c-1.812-1.274-2.246-1.127-4.018-2.434L1.954,37.289C0.371,33.032.671,23.727,3.562,19.44c4.056-3.6,7.287-5.694,11.252-5.679,1.941,0.007,4.257-.1,8.037,0,2.68,0.072,6.357,2.632,8.037,4.868,1.131,1.505,3.132,4.089,3.215,6.49,0.018,2.6.036,4.012,0,5.679C34.083,31.678,33.237,33.2,32.494,33.233ZM78.3,13.761c4.19-.073,4.85-0.045,8.84,0s11.284,4.1,11.252,6.49c0.031,1.7.037,2.53,0,4.057a2.513,2.513,0,0,1-1.607,1.623c-1.279-.013-1.346,0-4.018,0-2.535-1.892-4.761-4.883-6.429-4.868-1.619.015-3.1-.052-5.626,0-0.8-.038-1.747.728-3.215,2.434-1.382,1.9-1.648,3.789-1.607,9.736-0.02,1.614,3.184,5.688,4.822,5.679,3.162,0.012,3.669.044,5.626,0,1.607-.036,5.619-4.809,6.429-4.868,1.969-.011,2.5-0.023,4.822,0A1.77,1.77,0,0,1,99.2,35.667c0,0.911-.019,1.827,0,2.434,0.028,0.869-1.521,2.842-3.215,4.868A22.19,22.19,0,0,1,91.967,45.4c-1.476.706-2.673,0.711-4.822,0.811-2.409.112-4.524,0.03-7.233,0-5.884-.065-10.178-2.9-12.055-7.3a11.835,11.835,0,0,1-1.607-4.057c-0.791-3.578-.842-8.893,0-11.358a27.268,27.268,0,0,1,5.626-7.3C73.429,15.192,75.738,13.779,78.3,13.761ZM138.581,23.5c-0.8-.992-0.548-4,0-4.868,1.815-1.768,5.676-4.829,8.84-4.868,6.983-.008,10.66.1,12.859,0.811,2.921,1.221,7.169,3.836,8.037,8.113,0.072,6.8.006,15.623,0,21.094A1.712,1.712,0,0,1,166.71,45.4c-1.693-.036-3.706.021-5.626,0a1.745,1.745,0,0,1-1.607-1.623c-0.315.009-.338-0.014-1.608,0-0.675.007-.671,1.238-1.607,1.623a18.219,18.219,0,0,1-4.018.811c-3.95.07-6.432,0.081-9.645-.811-2.963-1.715-6.38-4.119-6.429-5.679a15.115,15.115,0,0,1,0-7.3,6.972,6.972,0,0,1,1.607-2.434c3.291-2.283,5.381-3.853,9.644-4.056,2.685-.128,7.358.059,9.645,0,1.6-.041,1.565-0.074,1.607-1.623,0.019-.987-1.8-3.241-3.215-3.245a22.705,22.705,0,0,0-4.822,0c-1.139.028-2.526-.005-3.215,0.811-0.673.8-1.1,1.578-1.607,1.623A36.718,36.718,0,0,1,138.581,23.5Zm57.062,21.094c-0.021-5.947.023-12.548,0-18.66-0.006-1.339-2.593-4.866-4.019-4.868-0.94-.006-1.411.024-2.6-0.035-1.961-.1-5.334,2.379-6.238,3.281V43.78a1.755,1.755,0,0,1-1.608,1.623c-2.014-.028-4.6.032-7.233,0a1.764,1.764,0,0,1-1.607-1.623c-0.006-8.76.029-20.391,0-27.585,0,0,.749-2.451,2.411-2.434,2.751-.044,2.931-0.022,5.625,0a1.764,1.764,0,0,1,1.608,1.623,4.2,4.2,0,0,0,.8,1.623c1.2,0.6,6.013-3.157,7.233-3.245a22,22,0,0,1,8.037.811,12.449,12.449,0,0,1,3.214,1.623c1.945,2.119,4,5.683,4.019,8.113,0.053,5.7.044,11.18,0,20.283-0.4.143-.319,0.813-0.8,0.811a78.506,78.506,0,0,1-8.037,0A0.808,0.808,0,0,1,195.643,44.591ZM230.2,42.157a15.869,15.869,0,0,1-6.429,1.623c-1.253.018-1.2,0.061-3.215,0a16.892,16.892,0,0,1-4.019-.811,13.935,13.935,0,0,1-7.233-5.679,9.8,9.8,0,0,1-1.607-3.245,46.051,46.051,0,0,1,0-9.736c0.365-3.65,3.31-7,7.233-8.924a17.3,17.3,0,0,1,5.626-1.623c5.115-.014,7.076.024,10.448,0,4.109-.029,8.7,3.156,8.84,4.868,0.19,5.692.149,6.142,0,13.792-0.053,9.835.428,15.506-.8,17.037-1.968,2.435-3.814,6.353-11.252,6.491-2.73.051-4.3,0.055-7.233,0-4.042-.075-9.93-2.215-11.252-4.868a3.44,3.44,0,0,1-.8-1.623c0.024-1.234-.033-1.711,0-3.233,0.04-.784.9-0.859,7.235-0.824,1.207,1.215,3.113,3.9,5.625,4.057,5.837,0.358,6.727-1.117,7.234-1.623,0.431-.39.83-0.823,1.607-1.623C230.255,44.89,230.207,43.729,230.2,42.157Zm34.558-16.226c0-.952,0-0.777,0-2.434a5.681,5.681,0,0,0-3.214-2.434,9.612,9.612,0,0,0-5.651-.031A6.809,6.809,0,0,0,252.7,23.5h-7.217a0.922,0.922,0,0,1-.813-0.8c-0.056-2.258-.125-3.977.8-4.88,2.155-1.915,6.31-4.026,8.037-4.056,5.785-.1,9.907.052,12.859,0.811a18.837,18.837,0,0,1,4.805,2.379c0.833,0.05,3.221,2.933,3.232,4.923,0.029,5.782.077,12.469,0,22.717a0.771,0.771,0,0,1-.8.811c-1.576-.012-4.145.024-6.429,0a1.766,1.766,0,0,1-1.608-1.623,14.316,14.316,0,0,0-1.607,0,4.261,4.261,0,0,0-1.608.811,11.964,11.964,0,0,1-4.018,1.623c-2.466.086-2.594,0.028-5.626,0a12.233,12.233,0,0,1-4.018-.811c-2.678-1.253-3.032-1.187-4.019-2.434a5.876,5.876,0,0,1-1.607-3.245c-0.1-1.96.022-3.56,0-5.679,0-2.2.736-3.163,1.607-4.868,3.06-2.265,6.067-3.275,8.037-3.245C255.7,25.976,258.734,25.917,264.759,25.931ZM296.1,13.761h5.626a1.455,1.455,0,0,1,1.607,1.623c-0.01,1.449.006,2.931,0,4.868a2.557,2.557,0,0,1-1.607,1.623c-2.443.014-5.751-.07-8.037,0-0.861.016-4.832,2.512-4.822,4.057,0.033,5.072-.081,12.237,0,18.66a0.8,0.8,0,0,1-.8.811c-2.127-.027-5.309.033-8.037,0a0.888,0.888,0,0,1-.8-0.811c0.026-8.56-.052-21.144,0-29.207a2.14,2.14,0,0,1,1.607-1.623c2.606,0.05,4.429-.034,7.233,0a2.462,2.462,0,0,1,.8,1.623,18.644,18.644,0,0,1,0,2.434,2.1,2.1,0,0,0,1.607-.811c0.525-.476,2.271-1.518,2.411-1.623A7.418,7.418,0,0,1,296.1,13.761Zm26.522,0h4.822c0.919,1.1.668,1.938,0.8,4.056-0.033,3.246-1.575,4.056-1.608,4.057-2.47.024-5.889-.005-8.84,0-1.44,1.2-2.275,2.014-4.019,3.245V44.591a0.869,0.869,0,0,1-.8.811c-2.389-.013-5.282.034-8.037,0a0.707,0.707,0,0,1-.8-0.811c-0.035-7.409-.055-20.576,0-29.207a1.768,1.768,0,0,1,1.607-1.623c2.243,0,4.534-.033,7.234,0,0.8,0.417.781,1.726,0.8,4.056C316.3,15.932,320.706,13.86,322.625,13.761Zm54.65,0c6.18-.066,8.069-0.159,11.252.811a15.052,15.052,0,0,1,7.233,4.057,20.626,20.626,0,0,1,2.411,4.868c0.888,4.051,1.626,10.892-.8,14.6-1.828,4.907-5.115,7.214-12.056,8.113-3.991.061-2.7,0.1-6.429,0a36.191,36.191,0,0,1-4.019-.811c-4.325-1.65-6.874-3.889-9.644-8.924-0.562-6.224-.786-7.822.8-14.6a10.8,10.8,0,0,1,4.822-5.679A19.255,19.255,0,0,1,377.275,13.761Zm-46.613,1.623c2.685,0,5.373-.1,8.058,0a0.7,0.7,0,0,1,.782.779c0.1,9.475,0,18.953,0,28.428a0.89,0.89,0,0,1-.8.811c-1.574.014-6.357,0.02-8.036,0a0.742,0.742,0,0,1-.8-0.811c-0.041-.978-0.055-18.744,0-26.773C329.808,16.1,330.146,15.45,330.662,15.384ZM23.654,26.742V23.5c-1.588-2.291-4.227-3.523-8.841-2.434A4.1,4.1,0,0,0,12.4,22.686a7.99,7.99,0,0,0-.8,4.057C15.239,26.736,20.185,26.679,23.654,26.742Zm351.21,8.113c1.225,2.98,1.281,2.446,2.411,3.245,2.481,2.344,8.437,2.526,10.448-1.623,2.1-4.067,1.373-12.448-1.607-14.6-1.18-.814-7.657-3.406-10.448,2.434C374.613,26.516,374.012,29.715,374.864,34.855ZM230.2,35.667v-14.6c-4.947-.046-9.657-0.44-11.252,1.623-1.593,1.833-1.663,4.523-1.607,8.113,0.5,1.879,2.174,4.311,4.018,4.868C224.823,35.746,227.248,35.749,230.2,35.667Zm-80.369-3.245c-0.895.7-.7,0.515-2.411,0.811-0.981,1.837-1.367,1.82-1.607,4.868l2.411,0.811c2.554,1.956,6.933-.148,9.644-0.811a13.979,13.979,0,0,0,.8-4.868h-1.607C155.651,32.151,152.433,32.346,149.832,32.421Zm106.087,0a5.719,5.719,0,0,0-2.411.811c-1.235.735-1.618,0.969-1.608,4.057a6.22,6.22,0,0,0,3.215,2.434c5.758,0.186,6.924-.718,9.644-2.434-0.018-1.456-.067-1.74,0-4.056-0.073-.574-0.82-0.731-1.607-0.811h-7.233Z"/>
</svg>
